# This file uses centimeters as units for non-parametric coordinates.

mtllib rug.mtl
g default
v -1.311177 0.062932 1.735963
v -1.311177 0.062932 2.082154
v -1.089497 0.062932 2.082154
v -1.089497 0.062932 1.735963
v -0.868306 0.062932 1.735963
v -0.868306 0.062932 2.082154
v -1.089497 0.062932 1.389771
v -1.311177 0.062932 1.389771
v -0.647114 0.067326 2.082154
v -1.311177 0.062932 1.043580
v -0.647114 0.062932 1.735963
v -1.089497 0.062932 1.043580
v -1.089497 0.062932 0.697389
v -1.311177 0.062932 0.697389
v -0.425435 0.062932 1.735963
v -0.425435 0.088322 2.082154
v -1.298482 0.091740 0.351197
v -0.204243 0.067814 2.075318
v -0.204243 0.062932 1.735963
v 0.016948 0.062932 1.735963
v -0.204243 0.062932 1.735963
v 0.016948 0.102971 2.039674
v 0.238628 0.061467 2.075318
v 0.238628 0.062932 1.735963
v 0.459819 0.062932 1.735963
v 0.459819 0.081975 2.082154
v 0.238628 0.062932 1.735963
v 0.681011 0.070256 2.082154
v 1.121929 0.062932 0.697389
v 0.681011 0.062932 1.735963
v 0.902690 0.062932 1.735963
v 0.902690 0.084416 2.082154
v 1.123882 0.066838 2.082154
v 1.345073 0.062932 2.082154
v 1.349468 0.062932 1.735963
v 1.125346 0.062932 1.735963
v 1.135600 0.062932 1.389771
v 1.365093 0.062932 1.389771
v 1.349468 0.062932 1.043580
v 1.125346 0.062932 1.043580
v 1.340190 0.062932 0.697389
v 1.315776 0.061955 0.351197
v 1.108257 0.062443 0.351197
v 1.103862 0.060490 0.004518
v 1.309429 0.059025 0.004518
v 1.338237 0.072209 -0.341674
v 1.120952 0.068791 -0.341674
v 1.123882 0.097111 -0.687865
v 1.345073 0.106877 -0.687865
v 1.345073 0.072697 -1.034057
v 1.123882 0.069279 -1.034057
v 0.459819 0.076115 -1.726439
v 1.123882 0.062932 -1.380248
v 1.345073 0.062932 -1.380248
v 1.345073 0.062932 -1.726439
v 1.345073 0.062932 -2.072631
v 1.123882 0.080021 -2.072631
v 1.123882 0.062932 -1.726439
v 0.902690 0.062932 -1.726439
v 0.902690 0.062932 -2.072631
v 0.681011 0.062932 -2.072631
v 0.681011 0.062932 -1.726439
v 0.459819 0.091740 -2.072631
v 0.238628 0.063908 -2.072631
v 0.238628 0.062932 -1.726439
v 0.016948 0.065373 -1.726439
v 0.016948 0.066350 -2.072631
v -0.204243 0.102482 -2.072631
v -0.204243 0.069279 -1.726439
v -0.425435 0.065373 -1.726439
v -0.425435 0.062932 -2.072631
v -0.647114 0.063908 -2.072631
v -1.089497 0.062932 0.004518
v -0.647114 0.062932 -1.726439
v -1.087544 0.067814 0.351197
v -1.311177 0.062932 0.004518
v -1.311177 0.062932 -0.341674
v -1.089497 0.062932 -0.341674
v -1.089497 0.062932 -0.687865
v -1.089497 0.062932 -0.341674
v -1.311177 0.062932 -0.687865
v -1.311177 0.062932 -1.034057
v -1.089497 0.062932 -1.034057
v -1.089497 0.062932 -1.380248
v -1.301900 0.062932 -1.380248
v -0.868306 0.062932 -1.726439
v -1.321919 0.062932 -1.726439
v -0.868306 0.062932 -2.072631
v -1.089497 0.062932 -2.072631
v -1.311177 0.062932 -2.072631
v -1.089497 0.062932 -1.726439
vt 0.000000 0.083328
vt 0.000000 0.000000
vt 0.083328 0.000000
vt 0.083328 0.083328
vt 0.166672 0.083328
vt 0.166672 0.000000
vt 0.083328 0.166672
vt 0.000000 0.166672
vt 0.250000 0.000000
vt 0.000000 0.250000
vt 0.250000 0.083328
vt 0.083328 0.250000
vt 0.083328 0.333328
vt 0.000000 0.333328
vt 0.333328 0.083328
vt 0.333328 0.000000
vt 0.000000 0.416672
vt 0.416672 0.000000
vt 0.416672 0.083328
vt 0.500000 0.083328
vt 0.416672 0.083328
vt 0.500000 0.000000
vt 0.583328 0.000000
vt 0.583328 0.083328
vt 0.666672 0.083328
vt 0.666672 0.000000
vt 0.583328 0.083328
vt 0.750000 0.000000
vt 0.916672 0.333328
vt 0.750000 0.083328
vt 0.833328 0.083328
vt 0.833328 0.000000
vt 0.916672 0.000000
vt 1.000000 0.000000
vt 1.000000 0.083328
vt 0.916672 0.083328
vt 0.916672 0.166672
vt 1.000000 0.166672
vt 1.000000 0.250000
vt 0.916672 0.250000
vt 1.000000 0.333328
vt 1.000000 0.416672
vt 0.916672 0.416672
vt 0.916672 0.500000
vt 1.000000 0.500000
vt 1.000000 0.583328
vt 0.916672 0.583328
vt 0.916672 0.666672
vt 1.000000 0.666672
vt 1.000000 0.750000
vt 0.916672 0.750000
vt 0.666672 0.916672
vt 0.916672 0.833328
vt 1.000000 0.833328
vt 1.000000 0.916672
vt 1.000000 1.000000
vt 0.916672 1.000000
vt 0.916672 0.916672
vt 0.833328 0.916672
vt 0.833328 1.000000
vt 0.750000 1.000000
vt 0.750000 0.916672
vt 0.666672 1.000000
vt 0.583328 1.000000
vt 0.583328 0.916672
vt 0.500000 0.916672
vt 0.500000 1.000000
vt 0.416672 1.000000
vt 0.416672 0.916672
vt 0.333328 0.916672
vt 0.333328 1.000000
vt 0.250000 1.000000
vt 0.083328 0.500000
vt 0.250000 0.916672
vt 0.083328 0.416672
vt 0.000000 0.500000
vt 0.000000 0.583328
vt 0.083328 0.583328
vt 0.083328 0.666672
vt 0.083328 0.583328
vt 0.000000 0.666672
vt 0.000000 0.750000
vt 0.083328 0.750000
vt 0.083328 0.833328
vt 0.000000 0.833328
vt 0.166672 0.916672
vt 0.000000 0.916672
vt 0.166672 1.000000
vt 0.083328 1.000000
vt 0.000000 1.000000
vt 0.083328 0.916672
vn 0.000000 1.000000 0.000000
vn 0.000000 1.000000 0.000000
vn 0.000000 1.000000 0.000000
vn 0.000000 1.000000 0.000000
vn 0.000000 1.000000 0.000000
vn 0.000000 1.000000 0.000000
vn -0.003906 0.999985 -0.003906
vn 0.000000 1.000000 0.000000
vn 0.000000 1.000000 0.000000
vn 0.000000 1.000000 0.000000
vn -0.011718 0.999931 0.000000
vn -0.003906 0.999985 -0.003906
vn 0.000000 1.000000 0.000000
vn 0.000000 1.000000 0.000000
vn 0.000000 1.000000 0.000000
vn 0.000000 1.000000 0.000000
vn 0.000000 1.000000 0.000000
vn -0.003906 0.999985 -0.003906
vn 0.000000 1.000000 0.000000
vn 0.000000 1.000000 0.000000
vn 0.000000 1.000000 0.000000
vn -0.003906 0.999985 -0.003906
vn -0.011718 0.999931 0.000000
vn -0.027326 0.999352 -0.023422
vn 0.000000 1.000000 0.000000
vn 0.000000 1.000000 0.000000
vn 0.000000 1.000000 0.000000
vn -0.027326 0.999352 -0.023422
vn 0.000000 0.999992 -0.003906
vn -0.003906 0.999985 -0.003906
vn 0.000000 1.000000 0.000000
vn -0.003906 0.999985 -0.003906
vn 0.000000 0.999992 -0.003906
vn 0.000000 1.000000 0.000000
vn 0.000000 1.000000 0.000000
vn 0.000000 1.000000 0.000000
vn 0.000000 1.000000 0.000000
vn 0.000000 1.000000 0.000000
vn 0.000000 0.999992 -0.003906
vn 0.000000 1.000000 0.000000
vn 0.000000 1.000000 0.000000
vn 0.003906 0.999992 0.000000
vn 0.003906 0.999992 0.000000
vn 0.000000 1.000000 0.000000
vn 0.000000 0.999992 -0.003906
vn 0.003906 0.999992 0.000000
vn 0.000000 0.999078 0.042929
vn 0.000000 1.000000 0.000000
vn 0.000000 0.999931 -0.011718
vn 0.000000 0.999992 -0.003906
vn -0.027326 0.999352 -0.023422
vn 0.003906 0.999992 0.000000
vn 0.000000 0.999992 -0.003906
vn 0.000000 0.999931 -0.011718
vn -0.027326 0.999352 -0.023422
vn 0.000000 0.997236 -0.074304
vn 0.000000 0.999931 -0.011718
vn 0.054606 0.998508 0.000000
vn 0.000000 0.999078 0.042929
vn 0.003906 0.999992 0.000000
vn 0.000000 0.999931 -0.011718
vn 0.000000 0.997236 -0.074304
vn -0.015600 0.998387 -0.054599
vn -0.015600 0.998387 -0.054599
vn 0.000000 0.999878 -0.015623
vn 0.000000 0.999931 -0.011718
vn 0.000000 0.999992 -0.003906
vn 0.000000 0.999878 -0.015623
vn -0.015600 0.998387 -0.054599
vn 0.000000 0.999931 -0.011718
vn 0.000000 0.999878 -0.015623
vn 0.000000 0.999992 -0.003906
vn 0.003906 0.999992 0.000000
vn 0.000000 0.999931 -0.011718
vn 0.000000 0.999992 -0.003906
vn -0.015600 0.998387 -0.054599
vn 0.011712 0.991598 -0.128830
vn 0.000000 0.999992 -0.003906
vn 0.000000 0.999992 -0.003906
vn 0.011712 0.991598 -0.128830
vn 0.023409 0.998804 -0.042917
vn 0.023409 0.998804 -0.042917
vn 0.000000 0.999992 0.003906
vn 0.000000 0.999992 -0.003906
vn -0.003906 0.999962 -0.007812
vn 0.000000 0.999992 0.003906
vn 0.023409 0.998804 -0.042917
vn 0.023409 0.998804 -0.042917
vn -0.019498 0.998318 -0.054596
vn -0.003906 0.999962 -0.007812
vn 0.000000 0.999992 -0.003906
vn 0.000000 0.999992 0.003906
vn -0.003906 0.999962 -0.007812
vn -0.003906 0.999962 -0.007812
vn -0.019498 0.998318 -0.054596
vn -0.003903 0.999230 -0.039032
vn 0.000000 0.999992 -0.003906
vn -0.003906 0.999962 -0.007812
vn 0.000000 1.000000 0.000000
vn -0.003903 0.999230 -0.039032
vn 0.000000 0.999992 -0.003906
vn -0.003906 0.999962 -0.007812
vn -0.003906 0.999962 -0.007812
vn 0.000000 0.999992 -0.003906
vn 0.000000 1.000000 0.000000
vn 0.003905 0.999619 -0.027333
vn 0.000000 0.999992 -0.003906
vn -0.003903 0.999230 -0.039032
vn -0.003903 0.999230 -0.039032
vn 0.007828 0.998007 -0.062620
vn 0.003905 0.999619 -0.027333
vn 0.003905 0.999619 -0.027333
vn 0.007828 0.998007 -0.062620
vn 0.023427 0.999535 -0.019522
vn 0.023427 0.999535 -0.019522
vn 0.015623 0.999878 0.000000
vn 0.003906 0.999985 -0.003906
vn 0.023427 0.999535 -0.019522
vn 0.000000 0.999992 -0.003906
vn 0.003905 0.999619 -0.027333
vn 0.003906 0.999985 -0.003906
vn 0.000000 0.999992 -0.003906
vn 0.023427 0.999535 -0.019522
vn 0.003905 0.999619 -0.027333
vn 0.000000 0.999992 -0.003906
vn 0.000000 1.000000 0.000000
vn 0.000000 1.000000 0.000000
vn 0.000000 0.999992 -0.003906
vn 0.003906 0.999985 -0.003906
vn 0.000000 0.999992 -0.003906
vn 0.003905 0.999619 -0.027333
vn 0.000000 1.000000 0.000000
vn 0.003906 0.999985 -0.003906
vn 0.000000 1.000000 0.000000
vn 0.000000 1.000000 0.000000
vn 0.000000 1.000000 0.000000
vn 0.000000 1.000000 0.000000
vn 0.000000 1.000000 0.000000
vn 0.000000 0.999992 -0.003906
vn 0.000000 1.000000 0.000000
vn 0.000000 1.000000 0.000000
vn 0.000000 1.000000 0.000000
vn 0.000000 1.000000 0.000000
vn 0.000000 1.000000 0.000000
vn 0.000000 0.999992 -0.003906
vn 0.000000 1.000000 0.000000
vn 0.000000 1.000000 0.000000
vn 0.000000 1.000000 0.000000
vn 0.000000 1.000000 0.000000
vn 0.000000 1.000000 0.000000
vn 0.000000 1.000000 0.000000
vn 0.000000 1.000000 0.000000
vn 0.000000 1.000000 0.000000
vn 0.000000 1.000000 0.000000
vn 0.000000 1.000000 0.000000
vn 0.003906 0.999985 -0.003906
vn 0.003906 0.999985 -0.003906
vn 0.000000 0.999992 -0.003906
vn 0.000000 1.000000 0.000000
vn 0.000000 1.000000 0.000000
vn 0.000000 0.999992 -0.003906
vn -0.003906 0.999985 0.003906
vn -0.003906 0.999985 0.003906
vn 0.000000 0.999992 -0.003906
vn 0.003906 0.999985 -0.003906
vn 0.000000 0.999992 -0.003906
vn 0.000000 1.000000 0.000000
vn -0.003906 0.999985 0.003906
vn 0.003906 0.999985 -0.003906
vn 0.007811 0.999848 0.015623
vn -0.003906 0.999985 0.003906
vn 0.003906 0.999992 0.000000
vn 0.000000 0.999992 -0.003906
vn -0.003906 0.999985 0.003906
vn -0.003906 0.999985 0.003906
vn 0.007811 0.999848 0.015623
vn -0.015654 0.997915 0.062614
vn -0.015654 0.997915 0.062614
vn 0.031188 0.998022 0.054579
vn -0.003906 0.999985 0.003906
vn -0.031234 0.999482 0.007808
vn 0.031188 0.998022 0.054579
vn -0.015654 0.997915 0.062614
vn -0.003906 0.999985 0.003906
vn 0.031188 0.998022 0.054579
vn -0.031234 0.999482 0.007808
vn -0.015654 0.997915 0.062614
vn -0.046824 0.998903 0.000000
vn -0.031234 0.999482 0.007808
vn -0.031234 0.999482 0.007808
vn -0.046824 0.998903 0.000000
vn -0.019498 0.998318 -0.054596
vn -0.019498 0.998318 -0.054596
vn 0.038990 0.998144 -0.046788
vn -0.031234 0.999482 0.007808
vn -0.003906 0.999985 0.003906
vn -0.031234 0.999482 0.007808
vn -0.007812 0.999962 0.003906
vn -0.031234 0.999482 0.007808
vn 0.038990 0.998144 -0.046788
vn -0.007812 0.999962 0.003906
vn 0.003906 0.999924 -0.011718
vn 0.038990 0.998144 -0.046788
vn -0.019498 0.998318 -0.054596
vn -0.019498 0.998318 -0.054596
vn 0.000000 0.999878 -0.015623
vn 0.003906 0.999924 -0.011718
vn 0.003906 0.999924 -0.011718
vn 0.000000 0.999878 -0.015623
vn 0.019526 0.999741 0.011716
vn 0.019526 0.999741 0.011716
vn 0.078191 0.996938 0.000000
vn 0.000000 0.999726 0.023431
vn 0.019526 0.999741 0.011716
vn 0.000000 0.999726 0.023431
vn 0.003906 0.999924 -0.011718
vn 0.000000 0.999726 0.023431
vn 0.000000 0.999726 0.023431
vn 0.019526 0.999741 0.011716
vn 0.003906 0.999924 -0.011718
vn 0.000000 0.999726 0.023431
vn -0.007812 0.999969 0.000000
vn -0.007812 0.999969 0.000000
vn 0.000000 0.999726 0.023431
vn 0.000000 0.999726 0.023431
vn 0.038990 0.998144 -0.046788
vn 0.003906 0.999924 -0.011718
vn -0.007812 0.999969 0.000000
vn 0.000000 0.999726 0.023431
vn -0.039033 0.999238 0.000000
vn -0.007812 0.999969 0.000000
vn -0.007812 0.999969 0.000000
vn -0.039033 0.999238 0.000000
vn 0.046820 0.998835 0.011705
vn 0.038990 0.998144 -0.046788
vn -0.007812 0.999969 0.000000
vn 0.031229 0.999322 -0.019518
vn 0.046820 0.998835 0.011705
vn 0.031229 0.999322 -0.019518
vn -0.007812 0.999969 0.000000
vn 0.038990 0.998144 -0.046788
vn 0.031229 0.999322 -0.019518
vn -0.007812 0.999962 0.003906
vn -0.007812 0.999962 0.003906
vn 0.031229 0.999322 -0.019518
vn 0.046820 0.998835 0.011705
vn 0.046820 0.998835 0.011705
vn 0.003902 0.998896 0.046823
vn -0.007812 0.999962 0.003906
vn -0.007812 0.999962 0.003906
vn 0.003902 0.998896 0.046823
vn -0.039030 0.999169 0.011709
vn -0.039030 0.999169 0.011709
vn -0.023427 0.999535 -0.019522
vn -0.007812 0.999962 0.003906
vn 0.000000 1.000000 0.000000
vn -0.023427 0.999535 -0.019522
vn -0.039030 0.999169 0.011709
vn 0.000000 1.000000 0.000000
vn -0.007812 0.999962 0.003906
vn -0.023427 0.999535 -0.019522
vn -0.039030 0.999169 0.011709
vn 0.085955 0.996291 0.003907
vn 0.000000 1.000000 0.000000
vn 0.000000 1.000000 0.000000
vn 0.085955 0.996291 0.003907
vn -0.003902 0.998896 0.046823
vn -0.003902 0.998896 0.046823
vn 0.000000 0.994441 0.105294
vn 0.000000 1.000000 0.000000
vn -0.011718 0.999924 0.003906
vn 0.000000 0.994441 0.105294
vn -0.003902 0.998896 0.046823
vn 0.000000 1.000000 0.000000
vn 0.000000 0.994441 0.105294
vn -0.011718 0.999924 0.003906
vn -0.003902 0.998896 0.046823
vn -0.085953 0.996269 -0.007814
vn -0.011718 0.999924 0.003906
vn -0.011718 0.999924 0.003906
vn -0.085953 0.996269 -0.007814
vn -0.003906 0.999992 0.000000
vn 0.000000 1.000000 0.000000
vn 0.000000 0.999992 0.003906
vn -0.007812 0.999962 0.003906
vn 0.000000 1.000000 0.000000
vn -0.011718 0.999924 0.003906
vn 0.000000 0.999992 0.003906
vn 0.000000 0.999992 0.003906
vn -0.003906 0.999985 0.003906
vn -0.007812 0.999962 0.003906
vn 0.000000 0.999992 0.003906
vn 0.003906 0.999992 0.000000
vn -0.003906 0.999985 0.003906
vn -0.003906 0.999992 0.000000
vn -0.003906 0.999992 0.000000
vn -0.011718 0.999924 0.003906
vn 0.000000 0.999992 0.003906
vn 0.136505 0.990639 0.000000
vn 0.003906 0.999992 0.000000
vn 0.003906 0.999992 0.000000
vn 0.136505 0.990639 0.000000
vn 0.054606 0.998508 0.000000
vn 0.054606 0.998508 0.000000
vn 0.136505 0.990639 0.000000
vn 0.000000 0.999992 0.003906
vn 0.000000 0.999992 0.003906
vn 0.000000 0.999078 -0.042929
vn 0.054606 0.998508 0.000000
vn 0.000000 1.000000 0.000000
vn 0.000000 0.999078 -0.042929
vn 0.000000 0.999992 0.003906
vn 0.000000 0.999992 0.003906
vn 0.000000 1.000000 0.000000
vn 0.000000 1.000000 0.000000
vn 0.000000 1.000000 0.000000
vn 0.000000 1.000000 0.000000
vn -0.003906 0.999992 0.000000
vn -0.003906 0.999992 0.000000
vn 0.000000 1.000000 0.000000
vn 0.000000 0.999992 0.003906
vn -0.011718 0.999924 0.003906
vn -0.003906 0.999992 0.000000
vn 0.000000 0.999992 0.003906
vn -0.003906 0.999992 0.000000
vn 0.000000 1.000000 0.000000
vn 0.000000 1.000000 0.000000
vn 0.000000 1.000000 0.000000
vn 0.000000 1.000000 0.000000
vn -0.003906 0.999992 0.000000
vn -0.011718 0.999924 0.003906
vn -0.003906 0.999992 0.000000
vn -0.003906 0.999992 0.000000
vn -0.003906 0.999992 0.000000
vn -0.003906 0.999992 0.000000
vn 0.000000 1.000000 0.000000
vn -0.011718 0.999924 0.003906
vn -0.003906 0.999992 0.000000
vn -0.003906 0.999992 0.000000
vn 0.000000 1.000000 0.000000
vn -0.003906 0.999992 0.000000
vn 0.000000 1.000000 0.000000
vn 0.000000 1.000000 0.000000
vn 0.000000 1.000000 0.000000
vn 0.000000 1.000000 0.000000
vn -0.003906 0.999992 0.000000
vn 0.000000 1.000000 0.000000
vn -0.003906 0.999992 0.000000
vn 0.000000 1.000000 0.000000
vn 0.000000 1.000000 0.000000
vn -0.003906 0.999992 0.000000
vn 0.000000 1.000000 0.000000
vn -0.003906 0.999992 0.000000
vn -0.003906 0.999992 0.000000
vn 0.000000 1.000000 0.000000
vn 0.000000 1.000000 0.000000
vn 0.000000 1.000000 0.000000
vn -0.003906 0.999992 0.000000
vn -0.003906 0.999992 0.000000
vn 0.000000 1.000000 0.000000
vn 0.000000 1.000000 0.000000
vn -0.003906 0.999992 0.000000
vn 0.000000 1.000000 0.000000
vn 0.000000 1.000000 0.000000
vn 0.000000 1.000000 0.000000
vn 0.000000 1.000000 0.000000
vn 0.000000 1.000000 0.000000
vn 0.000000 1.000000 0.000000
vn 0.000000 1.000000 0.000000
vn 0.000000 1.000000 0.000000
vn 0.000000 1.000000 0.000000
vn 0.000000 1.000000 0.000000
vn 0.000000 1.000000 0.000000
vn 0.000000 1.000000 0.000000
vn 0.000000 1.000000 0.000000
vn 0.000000 1.000000 0.000000
vn 0.000000 1.000000 0.000000
vn 0.000000 1.000000 0.000000
s off
g Rug
usemtl RugSG
f 1/1/1 2/2/2 3/3/3
f 3/3/4 4/4/5 1/1/6
f 5/5/7 4/4/8 3/3/9
f 3/3/10 6/6/11 5/5/12
f 1/1/13 4/4/14 7/7/15
f 7/7/16 4/4/17 5/5/18
f 7/7/19 8/8/20 1/1/21
f 5/5/22 6/6/23 9/9/24
f 10/10/25 8/8/26 7/7/27
f 9/9/28 11/11/29 5/5/30
f 7/7/31 5/5/32 11/11/33
f 7/7/34 12/12/35 10/10/36
f 12/12/37 7/7/38 11/11/39
f 10/10/40 12/12/41 13/13/42
f 13/13/43 12/12/44 11/11/45
f 13/13/46 14/14/47 10/10/48
f 15/15/49 11/11/50 9/9/51
f 13/13/52 11/11/53 15/15/54
f 9/9/55 16/16/56 15/15/57
f 17/17/58 14/14/59 13/13/60
f 15/15/61 16/16/62 18/18/63
f 18/18/64 19/19/65 15/15/66
f 20/20/67 19/19/68 18/18/69
f 15/15/70 21/21/71 20/20/72
f 13/13/73 15/15/74 20/20/75
f 18/18/76 22/22/77 20/20/78
f 20/20/79 22/22/80 23/23/81
f 23/23/82 24/24/83 20/20/84
f 25/25/85 24/24/86 23/23/87
f 23/23/88 26/26/89 25/25/90
f 20/20/91 27/27/92 25/25/93
f 25/25/94 26/26/95 28/28/96
f 20/20/97 25/25/98 29/29/99
f 28/28/100 30/30/101 25/25/102
f 25/25/103 30/30/104 29/29/105
f 31/31/106 30/30/107 28/28/108
f 28/28/109 32/32/110 31/31/111
f 31/31/112 32/32/113 33/33/114
f 33/33/115 34/34/116 35/35/117
f 33/33/118 36/36/119 31/31/120
f 35/35/121 36/36/122 33/33/123
f 31/31/124 36/36/125 37/37/126
f 37/37/127 36/36/128 35/35/129
f 30/30/130 31/31/131 37/37/132
f 35/35/133 38/38/134 37/37/135
f 37/37/136 38/38/137 39/39/138
f 30/30/139 37/37/140 40/40/141
f 39/39/142 40/40/143 37/37/144
f 30/30/145 40/40/146 29/29/147
f 29/29/148 40/40/149 39/39/150
f 39/39/151 41/41/152 29/29/153
f 29/29/154 41/41/155 42/42/156
f 42/42/157 43/43/158 29/29/159
f 29/29/160 43/43/161 44/44/162
f 44/44/163 43/43/164 42/42/165
f 20/20/166 29/29/167 44/44/168
f 42/42/169 45/45/170 44/44/171
f 13/13/172 20/20/173 44/44/174
f 44/44/175 45/45/176 46/46/177
f 46/46/178 47/47/179 44/44/180
f 48/48/181 47/47/182 46/46/183
f 44/44/184 47/47/185 48/48/186
f 46/46/187 49/49/188 48/48/189
f 48/48/190 49/49/191 50/50/192
f 50/50/193 51/51/194 48/48/195
f 44/44/196 48/48/197 52/52/198
f 48/48/199 51/51/200 52/52/201
f 53/53/202 51/51/203 50/50/204
f 50/50/205 54/54/206 53/53/207
f 53/53/208 54/54/209 55/55/210
f 55/55/211 56/56/212 57/57/213
f 55/55/214 58/58/215 53/53/216
f 57/57/217 58/58/218 55/55/219
f 53/53/220 58/58/221 59/59/222
f 59/59/223 58/58/224 57/57/225
f 51/51/226 53/53/227 59/59/228
f 57/57/229 60/60/230 59/59/231
f 59/59/232 60/60/233 61/61/234
f 51/51/235 59/59/236 62/62/237
f 61/61/238 62/62/239 59/59/240
f 51/51/241 62/62/242 52/52/243
f 52/52/244 62/62/245 61/61/246
f 61/61/247 63/63/248 52/52/249
f 52/52/250 63/63/251 64/64/252
f 64/64/253 65/65/254 52/52/255
f 66/66/256 65/65/257 64/64/258
f 66/66/259 52/52/260 65/65/261
f 64/64/262 67/67/263 66/66/264
f 66/66/265 67/67/266 68/68/267
f 68/68/268 69/69/269 66/66/270
f 70/70/271 69/69/272 68/68/273
f 66/66/274 69/69/275 70/70/276
f 68/68/277 71/71/278 70/70/279
f 70/70/280 71/71/281 72/72/282
f 66/66/283 73/73/284 52/52/285
f 66/66/286 70/70/287 73/73/288
f 73/73/289 44/44/290 52/52/291
f 73/73/292 13/13/293 44/44/294
f 72/72/295 74/74/296 70/70/297
f 73/73/298 75/75/299 13/13/300
f 13/13/301 75/75/302 17/17/303
f 17/17/304 75/75/305 73/73/306
f 73/73/307 76/76/308 17/17/309
f 77/77/310 76/76/311 73/73/312
f 73/73/313 78/78/314 77/77/315
f 77/77/316 78/78/317 79/79/318
f 79/79/319 80/80/320 73/73/321
f 70/70/322 79/79/323 73/73/324
f 79/79/325 81/81/326 77/77/327
f 82/82/328 81/81/329 79/79/330
f 70/70/331 83/83/332 79/79/333
f 79/79/334 83/83/335 82/82/336
f 70/70/337 74/74/338 83/83/339
f 82/82/340 83/83/341 84/84/342
f 84/84/343 85/85/344 82/82/345
f 74/74/346 86/86/347 83/83/348
f 86/86/349 84/84/350 83/83/351
f 86/86/352 74/74/353 72/72/354
f 87/87/355 85/85/356 84/84/357
f 72/72/358 88/88/359 86/86/360
f 86/86/361 88/88/362 89/89/363
f 89/89/364 90/90/365 87/87/366
f 86/86/367 91/91/368 84/84/369
f 84/84/370 91/91/371 87/87/372
f 89/89/373 91/91/374 86/86/375
f 87/87/376 91/91/377 89/89/378
