# This file uses centimeters as units for non-parametric coordinates.

mtllib UndefinedShelf_low.mtl
g default
v -0.272351 0.038732 1.574988
v 0.272351 0.038732 1.574988
v -0.272351 0.038732 -1.574989
v 0.272351 0.038732 -1.574989
v -0.272351 -0.048524 1.574988
v 0.272351 -0.048524 1.574988
v 0.272351 -0.048524 -1.574989
v -0.272351 -0.048524 -1.574989
vt 0.084960 0.095164
vt -0.004741 0.095164
vt 0.603694 0.095164
vt 0.693395 0.095164
vt 0.084960 0.005463
vt 0.603694 0.005463
vt 0.084960 0.109533
vt 0.084960 0.199233
vt 0.693395 0.109533
vt 0.603694 0.109533
vt 0.603694 0.199233
vt -0.004741 0.109533
vn 0.000000 -1.000000 0.000000
vn 0.000000 -1.000000 0.000000
vn 0.000000 -1.000000 0.000000
vn 0.000000 -1.000000 0.000000
vn 0.000000 1.000000 0.000000
vn 0.000000 1.000000 0.000000
vn 0.000000 1.000000 0.000000
vn 0.000000 1.000000 0.000000
vn 0.000000 0.000000 1.000000
vn 0.000000 0.000000 1.000000
vn 0.000000 0.000000 1.000000
vn 0.000000 0.000000 1.000000
vn 0.000000 0.000000 -1.000000
vn 0.000000 0.000000 -1.000000
vn 0.000000 0.000000 -1.000000
vn 0.000000 0.000000 -1.000000
vn -1.000000 0.000000 0.000000
vn -1.000000 0.000000 0.000000
vn -1.000000 0.000000 0.000000
vn -1.000000 0.000000 0.000000
s off
g pPlane2
usemtl initialShadingGroup
f 5/7/1 8/10/2 7/11/3 6/8/4
f 1/1/5 2/5/6 4/6/7 3/3/8
f 1/1/9 5/7/10 6/12/11 2/2/12
f 4/4/13 7/9/14 8/10/15 3/3/16
f 3/3/17 8/10/18 5/7/19 1/1/20
