# This file uses centimeters as units for non-parametric coordinates.

mtllib Painting.mtl
g default
v 0.000000 -0.664713 0.540666
v 0.000000 -0.000000 0.540666
v 0.000000 0.664713 0.540666
v 0.000000 -0.664713 0.000000
v 0.000000 -0.000000 0.000000
v 0.000000 0.664713 0.000000
v 0.000000 -0.664713 -0.540666
v 0.000000 -0.000000 -0.540666
v 0.000000 0.664713 -0.540666
vt 0.762058 0.015158
vt 0.765929 0.501078
vt 0.388907 0.503354
vt 0.386301 0.018975
vt 0.768809 0.987023
vt 0.390707 0.988623
vt 0.012075 0.504519
vt 0.010519 0.020795
vt 0.013488 0.989717
vn -1.000000 0.000000 0.000000
vn -1.000000 0.000000 0.000000
vn -1.000000 0.000000 0.000000
vn -1.000000 0.000000 0.000000
vn -1.000000 0.000000 0.000000
vn -1.000000 0.000000 0.000000
vn -1.000000 0.000000 0.000000
vn -1.000000 0.000000 0.000000
vn -1.000000 0.000000 0.000000
s 1
g pPlane1
usemtl initialShadingGroup
f 1/1/1 2/2/2 5/3/3 4/4/4
f 2/2/2 3/5/5 6/6/6 5/3/3
f 4/4/4 5/3/3 8/7/7 7/8/8
f 5/3/3 6/6/6 9/9/9 8/7/7
