# This file uses centimeters as units for non-parametric coordinates.

mtllib HallwaytoHeaven_low.mtl
g default
v -300.000000 -99.999992 80.000000
v -300.000000 -100.000008 -80.000000
v 300.000000 -99.999992 80.000000
v 300.000000 -100.000008 -80.000000
vt 0.009058 0.172637
vt 0.009058 0.827363
vt 0.183651 0.172637
vt 0.183651 0.827363
vn 0.000000 1.000000 -0.000000
vn 0.000000 1.000000 -0.000000
vn 0.000000 1.000000 -0.000000
vn 0.000000 1.000000 -0.000000
s off
g Grrrrrrrond
usemtl initialShadingGroup
f 2/4/1 1/2/2 3/1/3 4/3/4
g default
v -300.000000 100.000008 80.000000
v -300.000000 99.999992 -80.000000
v 300.000000 100.000008 80.000000
v 300.000000 99.999992 -80.000000
vt 0.592511 0.172637
vt 0.592511 0.827363
vt 0.417917 0.172637
vt 0.417917 0.827363
vn 0.000000 -1.000000 0.000000
vn 0.000000 -1.000000 0.000000
vn 0.000000 -1.000000 0.000000
vn 0.000000 -1.000000 0.000000
s off
g Plafond
usemtl initialShadingGroup
f 8/6/5 7/8/6 5/7/7 6/5/8
g default
v -300.000000 -99.999992 80.000015
v -300.000000 100.000008 79.999985
v -300.000000 -100.000008 -79.999985
v -300.000000 99.999992 -80.000015
v 300.000000 -99.999992 80.000015
v 300.000000 100.000008 79.999985
v 300.000000 -100.000008 -79.999985
v 300.000000 99.999992 -80.000015
vt 0.410329 0.172637
vt 0.192087 0.172637
vt 0.816129 0.827363
vt 0.990722 0.609121
vt 0.192087 0.827363
vt 0.597887 0.172637
vt 0.990722 0.390879
vt 0.990722 0.390879
vt 0.410329 0.827363
vt 0.816129 0.390879
vt 0.990722 0.172637
vt 0.816129 0.390879
vt 0.816129 0.172637
vt 0.816129 0.172637
vt 0.597887 0.827363
vt 0.816129 0.609121
vn 1.000000 0.000000 0.000000
vn 1.000000 0.000000 0.000000
vn 1.000000 0.000000 0.000000
vn 1.000000 0.000000 0.000000
vn 0.000000 0.000000 1.000000
vn 0.000000 0.000000 1.000000
vn 0.000000 0.000000 1.000000
vn 0.000000 0.000000 1.000000
vn -1.000000 0.000000 -0.000000
vn -1.000000 0.000000 -0.000000
vn -1.000000 0.000000 -0.000000
vn -1.000000 0.000000 -0.000000
vn 0.000000 -0.000000 -1.000000
vn 0.000000 -0.000000 -1.000000
vn 0.000000 -0.000000 -1.000000
vn 0.000000 -0.000000 -1.000000
s off
g MURRR
usemtl initialShadingGroup
f 9/20/9 11/15/10 12/12/11 10/24/12
f 11/9/13 15/17/14 16/13/15 12/10/16
f 15/21/17 13/19/18 14/16/19 16/18/20
f 13/22/21 9/11/22 10/23/23 14/14/24
