# This file uses centimeters as units for non-parametric coordinates.

mtllib UndefinedSpeelgoedAuto.mtl
g default
v 0.733284 -0.071229 -0.835789
v 0.385998 -0.071229 -0.632260
v 0.656874 0.063784 -0.782054
v 0.550410 0.071229 -0.717852
v 0.712973 0.063784 -0.689028
v 0.606508 0.071229 -0.624826
v 0.796155 -0.071229 -0.731534
v 0.454084 -0.071229 -0.519355
v 0.705494 0.021601 -0.819028
v 0.768365 0.021601 -0.714774
v 0.554579 0.021601 -0.585855
v 0.491710 0.021601 -0.690110
v 0.743453 0.012872 -0.841919
v 0.806326 0.012872 -0.737665
v 0.441437 0.008753 -0.511729
v 0.373352 0.008753 -0.624634
vt 0.164723 0.059543
vt 0.253606 0.364544
vt 0.205903 0.376334
vt 0.187940 0.117655
vt 0.160608 0.182821
vt 0.160513 0.258068
vt 0.094882 0.257986
vt 0.094977 0.182739
vt 0.067807 0.117505
vt 0.087706 0.389221
vt 0.087644 0.438360
vt 0.016648 0.121504
vt 0.071451 0.144557
vt 0.164625 0.138154
vt 0.090860 0.307194
vt 0.192972 0.295271
vt 0.167362 0.389321
vt 0.049198 0.376138
vt 0.001524 0.364229
vt 0.091105 0.110766
vt 0.091170 0.059451
vt 0.164659 0.110858
vt 0.184228 0.144698
vt 0.062331 0.295107
vt 0.091071 0.138062
vt 0.167300 0.438460
vt 0.239089 0.121782
vt 0.164413 0.307286
vn -0.505968 0.000221 -0.862552
vn -0.505968 0.000221 -0.862552
vn -0.506015 0.002192 -0.862522
vn -0.506072 0.004657 -0.862479
vn 0.051189 0.998212 -0.030869
vn 0.051189 0.998212 -0.030869
vn 0.051189 0.998212 -0.030869
vn 0.051189 0.998212 -0.030869
vn 0.526652 0.004641 0.850069
vn 0.526718 0.002111 0.850038
vn 0.526765 0.000207 0.850011
vn 0.526765 0.000207 0.850011
vn -0.842109 -0.181576 0.507821
vn -0.842109 -0.181576 0.507821
vn -0.622937 0.686174 0.375653
vn -0.484419 0.824623 0.292122
vn 0.847924 -0.139813 -0.511349
vn 0.847924 -0.139813 -0.511349
vn 0.829733 0.247314 -0.500379
vn 0.784792 0.400139 -0.473277
vn 0.394887 0.887330 -0.238137
vn 0.333546 0.921025 -0.201146
vn 0.488529 0.821307 -0.294607
vn 0.488529 0.821307 -0.294608
vn 0.513628 0.141283 0.846301
vn 0.513628 0.141283 0.846301
vn 0.512147 0.178760 0.840090
vn 0.512180 0.178087 0.840212
vn -0.281426 0.944456 0.169711
vn -0.200399 0.972232 0.120848
vn -0.521725 0.792980 0.314621
vn -0.521725 0.792980 0.314621
vn -0.503983 0.178946 -0.844973
vn -0.504119 0.177964 -0.845099
vn -0.508816 0.141264 -0.849206
vn -0.508816 0.141264 -0.849206
s 1
g pCube1
usemtl initialShadingGroup
f 1/27/1 2/2/2 16/3/3 13/4/4
s off
f 3/5/5 4/6/6 6/7/7 5/8/8
s 2
f 14/9/9 15/18/10 8/19/11 7/12/12
s 3
f 2/26/13 8/11/14 15/10/15 16/17/16
s 4
f 7/21/17 1/1/18 13/22/19 14/20/20
f 10/25/21 9/14/22 3/5/23 5/8/24
s 2
f 5/8/25 6/7/26 11/24/27 10/13/28
s 3
f 12/28/29 11/15/30 6/7/31 4/6/32
s 1
f 9/23/33 12/16/34 4/6/35 3/5/36
s 4
f 14/20/20 13/22/19 9/14/22 10/25/21
s 2
f 10/13/28 11/24/27 15/18/10 14/9/9
s 3
f 16/17/16 15/10/15 11/15/30 12/28/29
s 1
f 13/4/4 16/3/3 12/16/34 9/23/33
g default
v -0.806326 -0.071229 0.836870
v -0.378852 -0.065857 0.841919
v -0.696136 0.063784 0.830313
v -0.582641 0.071229 0.830313
v -0.696136 0.063784 0.721680
v -0.582641 0.071229 0.721680
v -0.806326 -0.071229 0.715124
v -0.378852 -0.065857 0.710073
v -0.749511 0.040797 0.836870
v -0.749511 0.040797 0.715124
v -0.518047 0.021601 0.715124
v -0.518047 0.021601 0.836870
v -0.801192 0.012872 0.836870
v -0.801192 0.012872 0.715124
v -0.396264 0.003301 0.710073
v -0.396264 0.003301 0.841919
vt 0.330351 0.416387
vt 0.244975 0.108076
vt 0.287299 0.116146
vt 0.307302 0.360057
vt 0.334942 0.294903
vt 0.335298 0.226188
vt 0.400928 0.226528
vt 0.400572 0.295243
vt 0.427535 0.360680
vt 0.408581 0.102950
vt 0.408804 0.059863
vt 0.478014 0.367255
vt 0.412798 0.328395
vt 0.330799 0.329994
vt 0.405144 0.177336
vt 0.302858 0.188969
vt 0.328926 0.102537
vt 0.331592 0.176955
vt 0.450065 0.116990
vt 0.492470 0.109359
vt 0.404168 0.365864
vt 0.403904 0.416768
vt 0.330615 0.365483
vt 0.322374 0.327927
vt 0.433752 0.189647
vt 0.404351 0.330375
vt 0.329149 0.059451
vt 0.256758 0.366109
vn -0.012136 -0.000972 0.999926
vn -0.012136 -0.000972 0.999926
vn -0.011901 0.001812 0.999928
vn -0.011248 0.009508 0.999892
vn -0.065457 0.997855 0.000000
vn -0.065457 0.997855 0.000000
vn -0.065457 0.997855 0.000000
vn -0.065457 0.997855 0.000000
vn -0.011253 0.009512 -0.999891
vn -0.011905 0.001812 -0.999927
vn -0.012141 -0.000973 -0.999926
vn -0.012141 -0.000973 -0.999926
vn 0.969737 0.244154 0.000000
vn 0.969737 0.244154 0.000000
vn 0.552160 0.833738 0.000000
vn 0.552156 0.833741 0.000000
vn -0.998142 0.060925 0.000000
vn -0.998142 0.060925 0.000000
vn -0.891859 0.452314 0.000000
vn -0.891859 0.452314 0.000000
vn -0.439176 0.898401 0.000000
vn -0.439176 0.898401 0.000000
vn -0.395547 0.918446 0.000000
vn -0.395547 0.918446 0.000000
vn 0.006083 0.178602 -0.983903
vn 0.006083 0.178602 -0.983903
vn -0.001390 0.118483 -0.992955
vn -0.000888 0.122538 -0.992463
vn 0.320300 0.947316 0.000000
vn 0.320300 0.947316 0.000000
vn 0.609251 0.792978 0.000000
vn 0.609251 0.792978 0.000000
vn -0.000886 0.122515 0.992466
vn -0.001388 0.118456 0.992958
vn 0.006085 0.178635 0.983897
vn 0.006085 0.178635 0.983897
s 1
g pCube2
usemtl initialShadingGroup
f 17/56/37 18/30/38 32/31/39 29/32/40
s off
f 19/33/41 20/34/42 22/35/43 21/36/44
s 2
f 30/37/45 31/47/46 24/48/47 23/40/48
s 3
f 18/55/49 24/39/50 31/38/51 32/45/52
s 4
f 23/50/53 17/29/54 29/51/55 30/49/56
f 26/54/57 25/42/58 19/33/59 21/36/60
s 2
f 21/36/61 22/35/62 27/53/63 26/41/64
s 3
f 28/46/65 27/43/66 22/35/67 20/34/68
s 1
f 25/52/69 28/44/70 20/34/71 19/33/72
s 4
f 30/49/56 29/51/55 25/42/58 26/54/57
s 2
f 26/41/64 27/53/63 31/47/46 30/37/45
s 3
f 32/45/52 31/38/51 27/43/66 28/46/65
s 1
f 29/32/40 32/31/39 28/44/70 25/52/69
