# This file uses centimeters as units for non-parametric coordinates.

mtllib Curtain.mtl
g default
v 0.000000 1.512852 2.064390
v 0.000000 0.000000 2.064390
v 0.059030 -1.512852 2.064390
v 0.000000 1.512852 0.000000
v 0.000000 0.000000 0.000000
v 0.059030 -1.512852 0.000000
v 0.000000 1.512852 -2.064390
v 0.000000 0.000000 -2.064390
v 0.059030 -1.512852 -2.064390
v 0.000000 1.184395 2.064390
v 0.000000 1.184395 0.000000
v 0.000000 1.184395 -2.064390
v 0.000000 1.512852 -1.425393
v 0.000000 1.184395 -1.425393
v 0.000000 0.000000 -1.425393
v 0.059030 -1.512852 -1.425393
v 0.000000 1.512852 1.460106
v 0.000000 1.184395 1.460106
v 0.000000 0.000000 1.460106
v 0.059030 -1.512852 1.460106
v 0.000000 -0.421485 2.064390
v 0.000000 -0.421485 1.460106
v 0.000000 -0.421485 0.000000
v 0.000000 -0.421485 -1.425393
v 0.000000 -0.421485 -2.064390
v 0.059030 -0.848966 2.064390
v 0.059030 -0.848966 1.460106
v 0.059030 -0.848966 0.000000
v 0.059030 -0.848966 -1.425393
v 0.059030 -0.848966 -2.064390
vt 0.000000 0.000000
vt 0.500000 0.000000
vt 1.000000 0.000000
vt 0.000000 0.500000
vt 0.500000 0.500000
vt 1.000000 0.500000
vt 0.000000 1.000000
vt 0.500000 1.000000
vt 1.000000 1.000000
vt 0.108556 0.000000
vt 0.108556 0.500000
vt 0.108556 1.000000
vt 0.000000 0.845234
vt 0.108556 0.845234
vt 0.500000 0.845234
vt 1.000000 0.845234
vt 0.000000 0.146359
vt 0.108555 0.146359
vt 0.500000 0.146359
vt 1.000000 0.146359
vt 0.639302 0.000000
vt 0.639302 0.146359
vt 0.639302 0.500000
vt 0.639302 0.845234
vt 0.639302 1.000000
vt 0.780585 0.000000
vt 0.780585 0.146359
vt 0.780585 0.500000
vt 0.780585 0.845234
vt 0.780585 1.000000
vn 1.000000 0.000000 0.000000
vn 1.000000 0.000000 0.000000
vn 1.000000 0.000000 0.000000
vn 1.000000 0.000000 0.000000
vn 1.000000 0.000000 0.000000
vn 0.997591 0.069364 0.000000
vn 0.997591 0.069364 0.000000
vn 1.000000 0.000000 0.000000
vn 1.000000 0.000000 0.000000
vn 1.000000 0.000000 0.000000
vn 1.000000 0.000000 0.000000
vn 1.000000 0.000000 0.000000
vn 1.000000 0.000000 0.000000
vn 0.997591 0.069364 0.000000
vn 0.997591 0.069364 0.000000
vn 1.000000 0.000000 0.000000
vn 1.000000 0.000000 0.000000
vn 1.000000 0.000000 0.000000
vn 1.000000 0.000000 0.000000
vn 0.997591 0.069364 0.000000
vn 0.998540 0.054009 0.000000
vn 0.998540 0.054009 0.000000
vn 0.998540 0.054009 0.000000
vn 0.998540 0.054009 0.000000
vn 0.998541 0.054009 0.000000
vn 1.000000 0.000000 0.000000
vn 1.000000 0.000000 0.000000
vn 1.000000 0.000000 0.000000
vn 1.000000 0.000000 0.000000
vn 1.000000 0.000000 0.000000
s 1
g Curtain
usemtl initialShadingGroup
f 17/17/1 18/18/2 11/11/3 4/4/4
f 19/19/5 22/22/6 23/23/7 5/5/8
f 13/13/9 14/14/10 12/12/11 7/7/12
f 15/15/13 24/24/14 25/25/15 8/8/16
f 11/11/3 18/18/2 19/19/5 5/5/8
f 12/12/11 14/14/10 15/15/13 8/8/16
f 4/4/4 11/11/3 14/14/10 13/13/9
f 15/15/13 14/14/10 11/11/3 5/5/8
f 5/5/8 23/23/7 24/24/14 15/15/13
f 1/1/17 10/10/18 18/18/2 17/17/1
f 19/19/5 18/18/2 10/10/18 2/2/19
f 2/2/19 21/21/20 22/22/6 19/19/5
f 22/22/6 21/21/20 26/26/21 27/27/22
f 23/23/7 22/22/6 27/27/22 28/28/23
f 24/24/14 23/23/7 28/28/23 29/29/24
f 25/25/15 24/24/14 29/29/24 30/30/25
f 27/27/22 26/26/21 3/3/26 20/20/27
f 28/28/23 27/27/22 20/20/27 6/6/28
f 29/29/24 28/28/23 6/6/28 16/16/29
f 30/30/25 29/29/24 16/16/29 9/9/30
