# This file uses centimeters as units for non-parametric coordinates.

mtllib PlafondVer2_low.mtl
g default
v -5.984393 3.849252 5.980036
v -1.253703 3.849252 5.980036
v 3.476986 3.849252 5.980036
v -5.984393 4.012507 5.980036
v -1.253703 4.012507 5.980036
v 3.476986 4.012507 5.980036
v -5.984393 4.175763 5.980036
v -1.253703 4.175763 5.980036
v 3.476986 4.175763 5.980036
v -5.984393 4.175763 2.439607
v -1.253703 4.175763 2.439607
v 3.476986 4.175763 2.439607
v -5.984393 4.175763 -1.100824
v -1.253703 4.175763 -1.100824
v 3.476986 4.175763 -1.100824
v -5.984393 4.012507 -1.100824
v 3.476986 4.012507 -1.100824
v -5.984393 3.849252 -1.100824
v -1.253703 3.849252 -1.100824
v 3.476986 3.849252 -1.100824
v -5.984393 3.849252 2.439607
v -1.253703 3.849252 2.439607
v 3.476986 3.849252 2.439607
v 3.476986 4.012507 2.439607
v -5.984393 4.012507 2.439607
v -5.984393 4.175763 -6.520506
v -1.253703 4.175763 -6.520506
v -5.984393 4.012507 -6.520506
v 3.476986 4.175763 -6.520506
v -1.253703 3.849252 -6.520506
v -5.984393 3.849252 -6.520506
v -5.984393 4.175763 -6.520506
v -1.253703 4.175763 -6.520506
v -1.253703 4.012507 -6.520506
v -5.984393 4.012507 -6.520506
v 3.476986 4.175763 -6.520506
v 3.476986 4.012507 -6.520506
v -1.253703 3.849252 -6.520506
v -5.984393 3.849252 -6.520506
v 3.476986 3.849252 -6.520506
v 3.476986 4.175763 -1.100824
v 3.476986 4.012507 -1.100824
v 3.476986 3.849252 -1.100824
v -1.253703 3.849252 -1.100824
v 12.388299 4.175763 -1.100824
v 12.388299 4.012507 -1.100824
v 12.388299 4.012507 -6.520506
v 12.388299 4.175763 -6.520506
v 12.388299 3.849252 -1.100824
v 12.388299 3.849252 -6.520506
vt 0.299336 0.514488
vt 0.813605 0.563168
vt 0.299336 0.265289
vt 0.299336 0.514488
vt 0.013843 0.016090
vt 0.013843 0.265289
vt 0.813605 0.958735
vt 0.013843 0.514488
vt 0.013843 0.265289
vt 0.013843 0.016090
vt 0.013843 0.016090
vt 0.013843 0.265289
vt 0.813605 0.958735
vt 0.013843 0.514488
vt 0.013843 0.265289
vt 0.013843 0.016090
vt 0.299336 0.514488
vt 0.813605 0.563168
vt 0.299336 0.514488
vt 0.299336 0.265289
vt 0.485836 0.514488
vt 0.813605 0.295642
vt 0.485836 0.514488
vt 0.672336 0.514488
vt 0.813605 0.028115
vt 0.672336 0.514488
vt 0.299336 0.016090
vt 0.485836 0.016090
vt 0.813605 0.281680
vt 0.813605 0.549207
vt 0.672336 0.016090
vt 0.813605 0.014154
vt 0.485836 0.016090
vt 0.299336 0.016090
vt 0.672336 0.016090
vt 0.299336 0.983910
vt 0.813605 0.576317
vt 0.813605 0.985846
vt 0.013843 0.983910
vt 0.299336 0.983910
vt 0.013843 0.983910
vt 0.672336 0.265289
vt 0.485836 0.265289
vt 0.299336 0.265289
vt 0.485836 0.265289
vt 0.672336 0.265289
vt 0.013843 0.514488
vt 0.308944 0.561322
vt 0.687013 0.639770
vt 0.687013 0.658700
vt 0.830999 0.295642
vt 0.830999 0.563168
vt 0.843337 0.563168
vt 0.843337 0.295642
vt 0.830999 0.028115
vt 0.843337 0.028115
vt 0.830999 0.549207
vt 0.830999 0.281680
vt 0.843337 0.281680
vt 0.843337 0.549207
vt 0.830999 0.014154
vt 0.843337 0.014154
vt 0.843337 0.958735
vt 0.830999 0.958735
vt 0.843337 0.576317
vt 0.830999 0.576317
vt 0.830999 0.985846
vt 0.843337 0.985846
vt 0.308944 0.566153
vt 0.308944 0.579200
vt 0.843337 0.958735
vt 0.687013 0.622943
vt 0.687013 0.635990
vt 0.830999 0.958735
vt 0.687013 0.677630
vt 0.687013 0.690677
vt 0.843337 0.563168
vt 0.830999 0.563168
vt 0.687013 0.671747
vt 0.801266 0.985846
vt 0.801266 0.563168
vt 0.801266 0.576317
vt 0.801266 0.563168
vt 0.801266 0.958735
vt 0.801266 0.958735
vt 0.801266 0.549207
vt 0.801266 0.281680
vt 0.801266 0.014154
vt 0.801266 0.028115
vt 0.801266 0.295642
vt 0.687013 0.652817
vt 0.308944 0.548275
vt 0.744504 0.014154
vt 0.762306 0.014154
vt 0.762306 0.985846
vt 0.744504 0.985846
vt 0.780107 0.014154
vt 0.780107 0.985846
vt 0.691843 0.014154
vt 0.709644 0.014154
vt 0.709644 0.985846
vt 0.691843 0.985846
vt 0.717010 0.014154
vt 0.734812 0.014154
vt 0.734812 0.985846
vt 0.717010 0.985846
vt 0.308944 0.677630
vt 0.308944 0.690677
vt 0.308944 0.658700
vt 0.308944 0.671747
vt 0.308944 0.639770
vt 0.308944 0.652817
vt 0.308944 0.622943
vt 0.308944 0.635990
vt 0.308944 0.605065
vt 0.687013 0.605065
vt 0.687013 0.618112
vt 0.308944 0.618112
vt 0.308944 0.581928
vt 0.687013 0.581928
vt 0.687013 0.594975
vt 0.308944 0.594975
vt 0.687013 0.566153
vt 0.687013 0.579200
vt 0.687013 0.548275
vt 0.687013 0.561322
vn 0.000000 0.000000 1.000000
vn 0.000000 0.000000 1.000000
vn 0.000000 0.000000 1.000000
vn 0.000000 0.000000 1.000000
vn 0.000000 0.000000 1.000000
vn 0.000000 0.000000 1.000000
vn 0.000000 0.000000 1.000000
vn 0.000000 0.000000 1.000000
vn 0.000000 0.000000 1.000000
vn 0.000000 1.000000 0.000000
vn 0.000000 1.000000 0.000000
vn 0.000000 1.000000 0.000000
vn 0.000000 1.000000 0.000000
vn 0.000000 1.000000 0.000000
vn 0.000000 1.000000 0.000000
vn 0.000000 1.000000 0.000000
vn 0.000000 1.000000 0.000000
vn 0.000000 1.000000 0.000000
vn 0.000000 0.000000 -1.000000
vn 0.000000 0.000000 -1.000000
vn 0.000000 0.000000 -1.000000
vn 0.000000 0.000000 -1.000000
vn 0.000000 0.000000 -1.000000
vn 0.000000 0.000000 -1.000000
vn 0.000000 0.000000 -1.000000
vn 0.000000 0.000000 -1.000000
vn 0.000000 0.000000 -1.000000
vn 0.000000 -1.000000 0.000000
vn 0.000000 -1.000000 0.000000
vn 0.000000 -1.000000 0.000000
vn 0.000000 -1.000000 0.000000
vn 0.000000 -1.000000 0.000000
vn 0.000000 -1.000000 0.000000
vn 0.000000 -1.000000 0.000000
vn 0.000000 -1.000000 0.000000
vn 0.000000 -1.000000 0.000000
vn 1.000000 0.000000 0.000000
vn 1.000000 0.000000 0.000000
vn 1.000000 0.000000 0.000000
vn 1.000000 0.000000 0.000000
vn 1.000000 0.000000 0.000000
vn 1.000000 0.000000 0.000000
vn 1.000000 0.000000 0.000000
vn 1.000000 0.000000 0.000000
vn 1.000000 0.000000 0.000000
vn -1.000000 0.000000 0.000000
vn -1.000000 0.000000 0.000000
vn -1.000000 0.000000 0.000000
vn -1.000000 0.000000 0.000000
vn -1.000000 0.000000 0.000000
vn -1.000000 0.000000 0.000000
vn -1.000000 0.000000 0.000000
vn -1.000000 0.000000 0.000000
vn -1.000000 0.000000 0.000000
vn 0.000000 1.000000 0.000000
vn 0.000000 1.000000 0.000000
vn -1.000000 0.000000 0.000000
vn -1.000000 0.000000 0.000000
vn 0.000000 1.000000 0.000000
vn 1.000000 0.000000 0.000000
vn 1.000000 0.000000 0.000000
vn 1.000000 0.000000 0.000000
vn 1.000000 0.000000 0.000000
vn 0.000000 -1.000000 0.000000
vn 0.000000 -1.000000 0.000000
vn -1.000000 0.000000 0.000000
vn 1.000000 0.000000 0.000000
vn 1.000000 0.000000 0.000000
vn 0.000000 -1.000000 0.000000
vn 0.000000 -1.000000 0.000000
vn 0.000000 -1.000000 0.000000
vn 0.000000 -1.000000 0.000000
vn 0.000000 0.000000 0.000000
vn 0.000000 0.000000 0.000000
vn 0.000000 0.000000 0.000000
vn 0.000000 0.000000 0.000000
vn 0.000000 0.000000 0.000000
vn 0.000000 0.000000 0.000000
vn 0.000000 0.000000 0.000000
vn 0.000000 0.000000 0.000000
vn 0.000000 0.000000 0.000000
vn 0.000000 0.000000 0.000000
vn 0.000000 0.000000 0.000000
vn 0.000000 0.000000 0.000000
vn 0.000000 0.000000 0.000000
vn 0.000000 0.000000 0.000000
vn 0.000000 0.000000 0.000000
vn 0.000000 0.000000 0.000000
vn 0.000000 0.000000 0.000000
vn 0.000000 0.000000 0.000000
vn 0.000000 0.000000 0.000000
vn 0.000000 0.000000 0.000000
vn 0.000000 0.000000 0.000000
vn 0.000000 0.000000 0.000000
vn 0.000000 0.000000 0.000000
vn 0.000000 0.000000 0.000000
vn 0.000000 0.000000 0.000000
vn 0.000000 0.000000 0.000000
vn 0.000000 0.000000 0.000000
vn 0.000000 0.000000 0.000000
vn 0.000000 0.000000 0.000000
vn 0.000000 0.000000 0.000000
vn 0.000000 0.000000 0.000000
vn 0.000000 0.000000 0.000000
vn 0.000000 0.000000 0.000000
vn 0.000000 0.000000 0.000000
vn 0.000000 0.000000 0.000000
vn 0.000000 0.000000 0.000000
vn 0.000000 0.000000 0.000000
vn 0.000000 0.000000 0.000000
vn 0.000000 0.000000 0.000000
vn 0.000000 0.000000 0.000000
vn 0.000000 0.000000 1.000000
vn 0.000000 0.000000 1.000000
vn 0.000000 0.000000 1.000000
vn 0.000000 0.000000 1.000000
vn 0.000000 0.000000 -1.000000
vn 0.000000 0.000000 -1.000000
vn 0.000000 1.000000 0.000000
vn 0.000000 1.000000 0.000000
vn 0.000000 1.000000 0.000000
vn 0.000000 1.000000 0.000000
vn 0.000000 0.000000 1.000000
vn 0.000000 0.000000 1.000000
vn 0.000000 -1.000000 0.000000
vn 0.000000 -1.000000 0.000000
vn 0.000000 0.000000 -1.000000
s 1
g pCube1
usemtl initialShadingGroup
f 1/115/1 2/116/2 5/117/3 4/118/4
f 2/92/2 3/125/5 6/126/6 5/48/3
f 4/119/4 5/120/3 8/121/7 7/122/8
f 5/69/3 6/123/6 9/124/9 8/70/7
s 2
f 7/35/10 8/42/11 11/43/12 10/33/13
f 8/42/11 9/26/14 12/23/15 11/43/12
f 10/33/13 11/43/12 14/44/16 13/34/17
f 11/43/12 12/23/15 15/1/18 14/44/16
s 3
f 32/113/19 33/72/20 34/73/21 35/114/22
f 33/107/20 36/75/23 37/76/24 34/108/21
f 35/111/22 34/49/21 38/91/25 39/112/26
f 34/109/21 37/50/24 40/79/27 38/110/25
s 4
f 18/27/28 19/3/29 22/45/30 21/28/31
f 19/3/29 20/4/32 23/21/33 22/45/30
f 21/28/31 22/45/30 2/46/34 1/31/35
f 22/45/30 23/21/33 3/24/36 2/46/34
s 5
f 23/90/37 20/83/38 17/2/39 24/22/40
f 3/89/41 23/90/37 24/22/40 6/25/42
f 24/51/40 17/52/39 15/53/43 12/54/44
f 6/55/42 24/51/40 12/54/44 9/56/45
s 6
f 18/86/46 21/87/47 25/29/48 16/30/49
f 21/87/47 1/88/50 4/32/51 25/29/48
f 16/57/49 25/58/48 10/59/52 13/60/53
f 25/58/48 4/61/51 7/62/54 10/59/52
s 2
f 13/34/17 14/44/16 27/6/55 26/5/56
s 6
f 16/57/49 13/60/53 26/63/57 28/64/58
s 2
f 14/44/16 15/1/18 29/8/59 27/6/55
s 7
f 45/65/60 46/66/61 47/67/62 48/68/63
s 4
f 19/3/29 18/27/28 31/10/64 30/9/65
s 6
f 18/86/46 16/30/49 28/7/58 31/84/66
s 7
f 46/37/61 49/82/67 50/80/68 47/38/62
s 8
f 43/19/69 44/20/70 38/15/71 40/47/72
s off
f 26/5/73 27/6/74 33/12/75 32/11/76
f 28/64/77 26/63/78 32/71/79 35/74/80
f 27/6/81 29/8/82 36/14/83 33/12/84
f 30/9/85 31/10/86 39/16/87 38/15/88
f 31/84/89 28/7/90 35/13/91 39/85/92
f 15/53/93 17/52/94 42/78/95 41/77/96
f 29/8/97 15/1/98 41/17/99 36/14/100
f 17/2/101 20/83/102 43/81/103 42/18/104
f 20/4/105 19/3/106 44/20/107 43/19/108
f 19/3/109 30/9/110 38/15/111 44/20/112
s 9
f 41/93/113 42/94/114 46/95/115 45/96/116
s 3
f 37/103/24 36/104/23 48/105/117 47/106/118
s off
f 36/14/119 41/17/120 45/36/121 48/39/122
s 9
f 42/94/114 43/97/123 49/98/124 46/95/115
s 8
f 43/19/69 40/47/72 50/41/125 49/40/126
s 3
f 40/99/27 37/100/24 47/101/118 50/102/127
