# This file uses centimeters as units for non-parametric coordinates.

mtllib V3_testroom.mtl
g default
v -0.701367 -0.037298 1.420630
v -0.701367 0.750702 1.420630
v -0.701367 1.538702 1.420630
v -0.701367 2.326702 1.420630
v -0.421367 -0.037298 1.420630
v -0.421367 0.750702 1.420630
v -0.421367 1.538702 1.420630
v -0.421367 2.326702 1.420630
v -0.141367 -0.037298 1.420630
v -0.141367 0.750702 1.420630
v -0.141367 1.538702 1.420630
v -0.141367 2.326702 1.420630
v 0.138633 -0.037298 1.420630
v 0.138633 0.750702 1.420630
v 0.138633 1.538702 1.420630
v 0.138633 2.326702 1.420630
v 0.418633 -0.037298 1.420630
v 0.418633 0.750702 1.420630
v 0.418633 1.538702 1.420630
v 0.418633 2.326702 1.420630
v 0.698633 -0.037298 1.420630
v 0.698633 0.750702 1.420630
v 0.698633 1.538702 1.420630
v 0.698633 2.326702 1.420630
vt 0.000000 0.000000
vt 0.200000 0.000000
vt 0.400000 0.000000
vt 0.600000 0.000000
vt 0.000000 0.200000
vt 0.200000 0.200000
vt 0.400000 0.200000
vt 0.600000 0.200000
vt 0.000000 0.400000
vt 0.200000 0.400000
vt 0.400000 0.400000
vt 0.600000 0.400000
vt 0.000000 0.600000
vt 0.200000 0.600000
vt 0.400000 0.600000
vt 0.600000 0.600000
vt 0.000000 0.800000
vt 0.200000 0.800000
vt 0.400000 0.800000
vt 0.600000 0.800000
vt 0.000000 1.000000
vt 0.200000 1.000000
vt 0.400000 1.000000
vt 0.600000 1.000000
vn 0.000000 -0.000000 -1.000000
vn 0.000000 -0.000000 -1.000000
vn 0.000000 -0.000000 -1.000000
vn 0.000000 -0.000000 -1.000000
vn 0.000000 -0.000000 -1.000000
vn 0.000000 -0.000000 -1.000000
vn 0.000000 -0.000000 -1.000000
vn 0.000000 -0.000000 -1.000000
vn 0.000000 -0.000000 -1.000000
vn 0.000000 -0.000000 -1.000000
vn 0.000000 -0.000000 -1.000000
vn 0.000000 -0.000000 -1.000000
vn 0.000000 -0.000000 -1.000000
vn 0.000000 -0.000000 -1.000000
vn 0.000000 -0.000000 -1.000000
vn 0.000000 -0.000000 -1.000000
vn 0.000000 -0.000000 -1.000000
vn 0.000000 -0.000000 -1.000000
vn 0.000000 -0.000000 -1.000000
vn 0.000000 -0.000000 -1.000000
vn 0.000000 -0.000000 -1.000000
vn 0.000000 -0.000000 -1.000000
vn 0.000000 -0.000000 -1.000000
vn 0.000000 -0.000000 -1.000000
s 1
g pPlane5
usemtl initialShadingGroup
f 1/1/1 2/2/2 6/6/3 5/5/4
f 2/2/2 3/3/5 7/7/6 6/6/3
f 3/3/5 4/4/7 8/8/8 7/7/6
f 5/5/4 6/6/3 10/10/9 9/9/10
f 6/6/3 7/7/6 11/11/11 10/10/9
f 7/7/6 8/8/8 12/12/12 11/11/11
f 9/9/10 10/10/9 14/14/13 13/13/14
f 10/10/9 11/11/11 15/15/15 14/14/13
f 11/11/11 12/12/12 16/16/16 15/15/15
f 13/13/14 14/14/13 18/18/17 17/17/18
f 14/14/13 15/15/15 19/19/19 18/18/17
f 15/15/15 16/16/16 20/20/20 19/19/19
f 17/17/18 18/18/17 22/22/21 21/21/22
f 18/18/17 19/19/19 23/23/23 22/22/21
f 19/19/19 20/20/20 24/24/24 23/23/23
g default
v -1.418549 0.035901 1.176870
v -1.183487 0.035901 1.176870
v -1.418549 0.303830 1.176870
v -1.183487 0.303830 1.176870
v -1.418549 0.303830 0.821391
v -1.183487 0.303830 0.821391
v -1.418549 0.035901 0.821391
v -1.183487 0.035901 0.821391
v -1.418549 0.303830 1.006147
v -1.183487 0.303830 1.006147
v -1.183487 0.035901 1.006147
v -1.418549 0.035901 1.006147
v -1.418549 0.162308 1.176870
v -1.183487 0.162308 1.176870
v -1.183487 0.162308 1.006147
v -1.183487 0.162308 0.821391
v -1.418549 0.162308 0.821391
v -1.418549 0.162308 1.006147
v -1.418549 0.176352 0.821391
v -1.183487 0.176352 0.821391
v -1.183487 0.176352 1.006147
v -1.418549 0.176352 1.176870
v -1.183487 0.176352 1.176870
v -1.418549 0.176352 1.006147
vt 0.375000 0.000000
vt 0.625000 0.000000
vt 0.375000 0.250000
vt 0.625000 0.250000
vt 0.375000 0.500000
vt 0.625000 0.500000
vt 0.375000 0.750000
vt 0.625000 0.750000
vt 0.375000 1.000000
vt 0.625000 1.000000
vt 0.875000 0.000000
vt 0.875000 0.250000
vt 0.125000 0.000000
vt 0.125000 0.250000
vt 0.254934 0.250000
vt 0.375000 0.370066
vt 0.625000 0.370066
vt 0.745066 0.250000
vt 0.625000 0.879934
vt 0.745066 0.000000
vt 0.254934 0.000000
vt 0.375000 0.879934
vt 0.375000 0.117949
vt 0.625000 0.117949
vt 0.745066 0.117949
vt 0.625000 0.632051
vt 0.875000 0.117949
vt 0.125000 0.117949
vt 0.375000 0.632051
vt 0.254934 0.117949
vt 0.125000 0.131053
vt 0.375000 0.618947
vt 0.625000 0.618947
vt 0.875000 0.131053
vt 0.745066 0.131053
vt 0.375000 0.131053
vt 0.625000 0.131053
vt 0.254934 0.131053
vn 0.000000 0.000000 1.000000
vn 0.000000 0.000000 1.000000
vn 0.000000 0.000000 1.000000
vn 0.000000 0.000000 1.000000
vn 0.000000 1.000000 0.000000
vn 0.000000 1.000000 0.000000
vn 0.000000 1.000000 0.000000
vn 0.000000 1.000000 0.000000
vn 0.000000 0.000000 -1.000000
vn 0.000000 0.000000 -1.000000
vn 0.000000 0.000000 -1.000000
vn 0.000000 0.000000 -1.000000
vn 0.000000 -1.000000 0.000000
vn 0.000000 -1.000000 0.000000
vn 0.000000 -1.000000 0.000000
vn 0.000000 -1.000000 0.000000
vn 1.000000 0.000000 0.000000
vn 1.000000 0.000000 0.000000
vn 1.000000 0.000000 0.000000
vn 1.000000 0.000000 0.000000
vn -1.000000 0.000000 -0.000000
vn -1.000000 -0.000001 -0.000000
vn -1.000000 -0.000000 -0.000000
vn -1.000000 0.000000 -0.000000
vn 0.000000 1.000000 0.000000
vn 0.000000 1.000000 0.000000
vn 1.000000 0.000000 0.000000
vn 1.000000 0.000000 0.000000
vn 1.000000 0.000000 0.000000
vn 0.000000 -1.000000 0.000000
vn 0.000000 -1.000000 0.000000
vn -1.000000 0.000001 -0.000000
vn -1.000000 0.000000 0.000000
vn -1.000000 0.000001 0.000000
vn 0.000000 0.000000 1.000000
vn 0.000000 0.000000 1.000000
vn 1.000000 0.000000 0.000000
vn 1.000000 0.000000 0.000000
vn 1.000000 0.000000 0.000000
vn 1.000000 0.000000 0.000000
vn 0.000000 0.000000 -1.000000
vn 0.000000 0.000000 -1.000000
vn 0.000000 0.000000 -1.000000
vn 0.000000 0.000000 -1.000000
vn -1.000000 0.000000 0.000000
vn -1.000000 0.000000 0.000000
vn -1.000000 -0.000001 0.000000
vn -1.000000 0.000000 0.000000
vn 0.000000 0.000000 1.000000
vn 0.000000 0.000000 1.000000
vn -1.000000 0.000000 -0.000000
vn 1.000000 0.000000 0.000000
s 1
g TV1 group3
usemtl initialShadingGroup
f 37/47/25 38/48/26 47/61/27 46/60/28
s 2
f 33/40/29 34/41/30 30/30/31 29/29/32
s 3
f 29/29/33 30/30/34 44/57/35 43/56/36
s 4
f 31/31/37 32/32/38 35/43/39 36/46/40
s 5
f 34/42/41 45/59/42 44/58/43 30/36/44
s 6
f 41/52/45 42/54/46 48/62/47 43/55/48
s 2
f 27/27/49 28/28/50 34/41/30 33/40/29
s 5
f 38/48/51 39/49/52 45/59/42 47/61/53
s 4
f 36/46/40 35/43/39 26/34/54 25/33/55
s 6
f 33/39/56 48/62/47 46/60/57 27/27/58
s 1
f 25/25/59 26/26/60 38/48/26 37/47/25
s 5
f 26/26/61 35/44/62 39/49/52 38/48/51
f 40/51/63 39/49/52 35/44/62 32/35/64
s 3
f 41/53/65 40/50/66 32/32/67 31/31/68
s 6
f 31/37/69 36/45/70 42/54/46 41/52/45
f 37/47/71 42/54/46 36/45/70 25/25/72
s 1
f 46/60/28 47/61/27 28/28/73 27/27/74
s 3
f 43/56/36 44/57/35 40/50/66 41/53/65
s 5
f 44/58/43 45/59/42 39/49/52 40/51/63
s 6
f 43/55/48 48/62/47 33/39/56 29/38/75
s 5
f 47/61/53 45/59/42 34/42/41 28/28/76
s 6
f 46/60/57 48/62/47 42/54/46 37/47/71
g default
v 2.836072 -0.041545 1.497540
v 2.836072 1.111655 1.497540
v 2.836072 2.264855 1.497540
v 2.836072 3.418055 1.497540
v 2.836072 -0.041545 0.344340
v 2.836072 1.111655 0.344340
v 2.836072 2.264855 0.344340
v 2.836072 3.418055 0.344340
v 2.836072 -0.041545 -0.808860
v 2.836072 1.111655 -0.808860
v 2.836072 2.264855 -0.808860
v 2.836072 3.418055 -0.808860
v 2.836072 -0.041545 -1.962061
v 2.836072 1.111655 -1.962061
v 2.836072 2.264855 -1.962061
v 2.836072 3.418055 -1.962061
v 2.836072 -0.041545 -3.115261
v 2.836072 1.111655 -3.115261
v 2.836072 2.264855 -3.115261
v 2.836072 3.418055 -3.115261
v 2.836072 -0.041545 -4.268460
v 2.836072 1.111655 -4.268460
v 2.836072 2.264855 -4.268460
v 2.836072 3.418055 -4.268460
vt 0.000000 0.000000
vt 0.200000 0.000000
vt 0.400000 0.000000
vt 0.600000 0.000000
vt 0.000000 0.200000
vt 0.200000 0.200000
vt 0.400000 0.200000
vt 0.600000 0.200000
vt 0.000000 0.400000
vt 0.200000 0.400000
vt 0.400000 0.400000
vt 0.600000 0.400000
vt 0.000000 0.600000
vt 0.200000 0.600000
vt 0.400000 0.600000
vt 0.600000 0.600000
vt 0.000000 0.800000
vt 0.200000 0.800000
vt 0.400000 0.800000
vt 0.600000 0.800000
vt 0.000000 1.000000
vt 0.200000 1.000000
vt 0.400000 1.000000
vt 0.600000 1.000000
vn -1.000000 0.000000 0.000000
vn -1.000000 0.000000 0.000000
vn -1.000000 0.000000 0.000000
vn -1.000000 0.000000 0.000000
vn -1.000000 0.000000 0.000000
vn -1.000000 0.000000 0.000000
vn -1.000000 0.000000 0.000000
vn -1.000000 0.000000 0.000000
vn -1.000000 0.000000 0.000000
vn -1.000000 0.000000 0.000000
vn -1.000000 0.000000 0.000000
vn -1.000000 0.000000 0.000000
vn -1.000000 0.000000 0.000000
vn -1.000000 0.000000 0.000000
vn -1.000000 0.000000 0.000000
vn -1.000000 0.000000 0.000000
vn -1.000000 0.000000 0.000000
vn -1.000000 0.000000 0.000000
vn -1.000000 0.000000 0.000000
vn -1.000000 0.000000 0.000000
vn -1.000000 0.000000 0.000000
vn -1.000000 0.000000 0.000000
vn -1.000000 0.000000 0.000000
vn -1.000000 0.000000 0.000000
s 1
g pPlane2
usemtl initialShadingGroup
f 49/63/77 50/64/78 54/68/79 53/67/80
f 50/64/78 51/65/81 55/69/82 54/68/79
f 51/65/81 52/66/83 56/70/84 55/69/82
f 53/67/80 54/68/79 58/72/85 57/71/86
f 54/68/79 55/69/82 59/73/87 58/72/85
f 55/69/82 56/70/84 60/74/88 59/73/87
f 57/71/86 58/72/85 62/76/89 61/75/90
f 58/72/85 59/73/87 63/77/91 62/76/89
f 59/73/87 60/74/88 64/78/92 63/77/91
f 61/75/90 62/76/89 66/80/93 65/79/94
f 62/76/89 63/77/91 67/81/95 66/80/93
f 63/77/91 64/78/92 68/82/96 67/81/95
f 65/79/94 66/80/93 70/84/97 69/83/98
f 66/80/93 67/81/95 71/85/99 70/84/97
f 67/81/95 68/82/96 72/86/100 71/85/99
g default
v -2.857257 -0.041545 -4.305259
v -2.857257 1.111655 -4.305259
v -2.857257 2.264855 -4.305259
v -2.857257 3.418055 -4.305259
v -2.857257 -0.041545 -3.152059
v -2.857257 1.111655 -3.152059
v -2.857257 2.264855 -3.152059
v -2.857257 3.418055 -3.152059
v -2.857257 -0.041545 -1.998859
v -2.857257 1.111655 -1.998859
v -2.857257 2.264855 -1.998859
v -2.857257 3.418055 -1.998859
v -2.857257 -0.041545 -0.845659
v -2.857257 1.111655 -0.845659
v -2.857257 2.264855 -0.845659
v -2.857257 3.418055 -0.845659
v -2.857257 -0.041545 0.307541
v -2.857257 1.111655 0.307541
v -2.857257 2.264855 0.307541
v -2.857257 3.418055 0.307541
v -2.857257 -0.041545 1.460741
v -2.857257 1.111655 1.460741
v -2.857257 2.264855 1.460741
v -2.857257 3.418055 1.460741
vt 0.000000 0.000000
vt 0.200000 0.000000
vt 0.400000 0.000000
vt 0.600000 0.000000
vt 0.000000 0.200000
vt 0.200000 0.200000
vt 0.400000 0.200000
vt 0.600000 0.200000
vt 0.000000 0.400000
vt 0.200000 0.400000
vt 0.400000 0.400000
vt 0.600000 0.400000
vt 0.000000 0.600000
vt 0.200000 0.600000
vt 0.400000 0.600000
vt 0.600000 0.600000
vt 0.000000 0.800000
vt 0.200000 0.800000
vt 0.400000 0.800000
vt 0.600000 0.800000
vt 0.000000 1.000000
vt 0.200000 1.000000
vt 0.400000 1.000000
vt 0.600000 1.000000
vn 1.000000 0.000000 0.000000
vn 1.000000 0.000000 0.000000
vn 1.000000 0.000000 0.000000
vn 1.000000 0.000000 0.000000
vn 1.000000 0.000000 0.000000
vn 1.000000 0.000000 0.000000
vn 1.000000 0.000000 0.000000
vn 1.000000 0.000000 0.000000
vn 1.000000 0.000000 0.000000
vn 1.000000 0.000000 0.000000
vn 1.000000 0.000000 0.000000
vn 1.000000 0.000000 0.000000
vn 1.000000 0.000000 0.000000
vn 1.000000 0.000000 0.000000
vn 1.000000 0.000000 0.000000
vn 1.000000 0.000000 0.000000
vn 1.000000 0.000000 0.000000
vn 1.000000 0.000000 0.000000
vn 1.000000 0.000000 0.000000
vn 1.000000 0.000000 0.000000
vn 1.000000 0.000000 0.000000
vn 1.000000 0.000000 0.000000
vn 1.000000 0.000000 0.000000
vn 1.000000 0.000000 0.000000
s 1
g pPlane3
usemtl initialShadingGroup
f 73/87/101 74/88/102 78/92/103 77/91/104
f 74/88/102 75/89/105 79/93/106 78/92/103
f 75/89/105 76/90/107 80/94/108 79/93/106
f 77/91/104 78/92/103 82/96/109 81/95/110
f 78/92/103 79/93/106 83/97/111 82/96/109
f 79/93/106 80/94/108 84/98/112 83/97/111
f 81/95/110 82/96/109 86/100/113 85/99/114
f 82/96/109 83/97/111 87/101/115 86/100/113
f 83/97/111 84/98/112 88/102/116 87/101/115
f 85/99/114 86/100/113 90/104/117 89/103/118
f 86/100/113 87/101/115 91/105/119 90/104/117
f 87/101/115 88/102/116 92/106/120 91/105/119
f 89/103/118 90/104/117 94/108/121 93/107/122
f 90/104/117 91/105/119 95/109/123 94/108/121
f 91/105/119 92/106/120 96/110/124 95/109/123
g default
v -2.884367 -0.041545 1.439193
v -2.884367 1.111655 1.439193
v -2.884367 2.264855 1.439193
v -2.884367 3.418055 1.439193
v -1.731167 -0.041545 1.439193
v -1.731167 1.111655 1.439193
v -1.731167 2.264855 1.439193
v -1.731167 3.418055 1.439193
v -0.577967 -0.041545 1.439193
v -0.577967 1.111655 1.439193
v -0.577967 2.264855 1.439193
v -0.577967 3.418055 1.439193
v 0.575233 -0.041545 1.439193
v 0.575233 1.111655 1.439193
v 0.575233 2.264855 1.439193
v 0.575233 3.418055 1.439193
v 1.728433 -0.041545 1.439193
v 1.728433 1.111655 1.439193
v 1.728433 2.264855 1.439193
v 1.728433 3.418055 1.439193
v 2.881633 -0.041545 1.439193
v 2.881633 1.111655 1.439193
v 2.881633 2.264855 1.439193
v 2.881633 3.418055 1.439193
vt 0.000000 0.000000
vt 0.200000 0.000000
vt 0.400000 0.000000
vt 0.600000 0.000000
vt 0.000000 0.200000
vt 0.200000 0.200000
vt 0.400000 0.200000
vt 0.600000 0.200000
vt 0.000000 0.400000
vt 0.200000 0.400000
vt 0.400000 0.400000
vt 0.600000 0.400000
vt 0.000000 0.600000
vt 0.200000 0.600000
vt 0.400000 0.600000
vt 0.600000 0.600000
vt 0.000000 0.800000
vt 0.200000 0.800000
vt 0.400000 0.800000
vt 0.600000 0.800000
vt 0.000000 1.000000
vt 0.200000 1.000000
vt 0.400000 1.000000
vt 0.600000 1.000000
vn 0.000000 -0.000000 -1.000000
vn 0.000000 -0.000000 -1.000000
vn 0.000000 -0.000000 -1.000000
vn 0.000000 -0.000000 -1.000000
vn 0.000000 -0.000000 -1.000000
vn 0.000000 -0.000000 -1.000000
vn 0.000000 -0.000000 -1.000000
vn 0.000000 -0.000000 -1.000000
vn 0.000000 -0.000000 -1.000000
vn 0.000000 -0.000000 -1.000000
vn 0.000000 -0.000000 -1.000000
vn 0.000000 -0.000000 -1.000000
vn 0.000000 -0.000000 -1.000000
vn 0.000000 -0.000000 -1.000000
vn 0.000000 -0.000000 -1.000000
vn 0.000000 -0.000000 -1.000000
vn 0.000000 -0.000000 -1.000000
vn 0.000000 -0.000000 -1.000000
vn 0.000000 -0.000000 -1.000000
vn 0.000000 -0.000000 -1.000000
vn 0.000000 -0.000000 -1.000000
vn 0.000000 -0.000000 -1.000000
vn 0.000000 -0.000000 -1.000000
vn 0.000000 -0.000000 -1.000000
s 1
g pPlane4
usemtl initialShadingGroup
f 97/111/125 98/112/126 102/116/127 101/115/128
f 98/112/126 99/113/129 103/117/130 102/116/127
f 99/113/129 100/114/131 104/118/132 103/117/130
f 101/115/128 102/116/127 106/120/133 105/119/134
f 102/116/127 103/117/130 107/121/135 106/120/133
f 103/117/130 104/118/132 108/122/136 107/121/135
f 105/119/134 106/120/133 110/124/137 109/123/138
f 106/120/133 107/121/135 111/125/139 110/124/137
f 107/121/135 108/122/136 112/126/140 111/125/139
f 109/123/138 110/124/137 114/128/141 113/127/142
f 110/124/137 111/125/139 115/129/143 114/128/141
f 111/125/139 112/126/140 116/130/144 115/129/143
f 113/127/142 114/128/141 118/132/145 117/131/146
f 114/128/141 115/129/143 119/133/147 118/132/145
f 115/129/143 116/130/144 120/134/148 119/133/147
g default
v -2.883000 0.030319 1.480767
v -1.729800 0.030319 1.480767
v -0.576600 0.030319 1.480767
v 0.576600 0.030319 1.480767
v 1.729800 0.030319 1.480767
v 2.883000 0.030319 1.480767
v -2.883000 0.030319 0.327567
v -1.729800 0.030319 0.327567
v -0.576600 0.030319 0.327567
v 0.576600 0.030319 0.327567
v 1.729800 0.030319 0.327567
v 2.883000 0.030319 0.327567
v -2.883000 0.030319 -0.825633
v -1.729800 0.030319 -0.825633
v -0.576600 0.030319 -0.825633
v 0.576600 0.030319 -0.825633
v 1.729800 0.030319 -0.825633
v 2.883000 0.030319 -0.825633
v -2.883000 0.030319 -1.978833
v -1.729800 0.030319 -1.978833
v -0.576600 0.030319 -1.978833
v 0.576600 0.030319 -1.978833
v 1.729800 0.030319 -1.978833
v 2.883000 0.030319 -1.978833
v -2.883000 0.030319 -3.132033
v -1.729800 0.030319 -3.132033
v -0.576600 0.030319 -3.132033
v 0.576600 0.030319 -3.132033
v 1.729800 0.030319 -3.132033
v 2.883000 0.030319 -3.132033
v -2.883000 0.030319 -4.285233
v -1.729800 0.030319 -4.285233
v -0.576600 0.030319 -4.285233
v 0.576600 0.030319 -4.285233
v 1.729800 0.030319 -4.285233
v 2.883000 0.030319 -4.285233
vt 0.000000 0.000000
vt 0.200000 0.000000
vt 0.400000 0.000000
vt 0.600000 0.000000
vt 0.800000 0.000000
vt 1.000000 0.000000
vt 0.000000 0.200000
vt 0.200000 0.200000
vt 0.400000 0.200000
vt 0.600000 0.200000
vt 0.800000 0.200000
vt 1.000000 0.200000
vt 0.000000 0.400000
vt 0.200000 0.400000
vt 0.400000 0.400000
vt 0.600000 0.400000
vt 0.800000 0.400000
vt 1.000000 0.400000
vt 0.000000 0.600000
vt 0.200000 0.600000
vt 0.400000 0.600000
vt 0.600000 0.600000
vt 0.800000 0.600000
vt 1.000000 0.600000
vt 0.000000 0.800000
vt 0.200000 0.800000
vt 0.400000 0.800000
vt 0.600000 0.800000
vt 0.800000 0.800000
vt 1.000000 0.800000
vt 0.000000 1.000000
vt 0.200000 1.000000
vt 0.400000 1.000000
vt 0.600000 1.000000
vt 0.800000 1.000000
vt 1.000000 1.000000
vn 0.000000 1.000000 0.000000
vn 0.000000 1.000000 0.000000
vn 0.000000 1.000000 0.000000
vn 0.000000 1.000000 0.000000
vn 0.000000 1.000000 0.000000
vn 0.000000 1.000000 0.000000
vn 0.000000 1.000000 0.000000
vn 0.000000 1.000000 0.000000
vn 0.000000 1.000000 0.000000
vn 0.000000 1.000000 0.000000
vn 0.000000 1.000000 0.000000
vn 0.000000 1.000000 0.000000
vn 0.000000 1.000000 0.000000
vn 0.000000 1.000000 0.000000
vn 0.000000 1.000000 0.000000
vn 0.000000 1.000000 0.000000
vn 0.000000 1.000000 0.000000
vn 0.000000 1.000000 0.000000
vn 0.000000 1.000000 0.000000
vn 0.000000 1.000000 0.000000
vn 0.000000 1.000000 0.000000
vn 0.000000 1.000000 0.000000
vn 0.000000 1.000000 0.000000
vn 0.000000 1.000000 0.000000
vn 0.000000 1.000000 0.000000
vn 0.000000 1.000000 0.000000
vn 0.000000 1.000000 0.000000
vn 0.000000 1.000000 0.000000
vn 0.000000 1.000000 0.000000
vn 0.000000 1.000000 0.000000
vn 0.000000 1.000000 0.000000
vn 0.000000 1.000000 0.000000
vn 0.000000 1.000000 0.000000
vn 0.000000 1.000000 0.000000
vn 0.000000 1.000000 0.000000
vn 0.000000 1.000000 0.000000
s 1
g pPlane1
usemtl initialShadingGroup
f 121/135/149 122/136/150 128/142/151 127/141/152
f 122/136/150 123/137/153 129/143/154 128/142/151
f 123/137/153 124/138/155 130/144/156 129/143/154
f 124/138/155 125/139/157 131/145/158 130/144/156
f 125/139/157 126/140/159 132/146/160 131/145/158
f 127/141/152 128/142/151 134/148/161 133/147/162
f 128/142/151 129/143/154 135/149/163 134/148/161
f 129/143/154 130/144/156 136/150/164 135/149/163
f 130/144/156 131/145/158 137/151/165 136/150/164
f 131/145/158 132/146/160 138/152/166 137/151/165
f 133/147/162 134/148/161 140/154/167 139/153/168
f 134/148/161 135/149/163 141/155/169 140/154/167
f 135/149/163 136/150/164 142/156/170 141/155/169
f 136/150/164 137/151/165 143/157/171 142/156/170
f 137/151/165 138/152/166 144/158/172 143/157/171
f 139/153/168 140/154/167 146/160/173 145/159/174
f 140/154/167 141/155/169 147/161/175 146/160/173
f 141/155/169 142/156/170 148/162/176 147/161/175
f 142/156/170 143/157/171 149/163/177 148/162/176
f 143/157/171 144/158/172 150/164/178 149/163/177
f 145/159/174 146/160/173 152/166/179 151/165/180
f 146/160/173 147/161/175 153/167/181 152/166/179
f 147/161/175 148/162/176 154/168/182 153/167/181
f 148/162/176 149/163/177 155/169/183 154/168/182
f 149/163/177 150/164/178 156/170/184 155/169/183
