# This file uses centimeters as units for non-parametric coordinates.

mtllib Bank_low.mtl
g default
v 1.428394 2.089230 4.483218
v 1.428394 1.315822 4.483218
v 1.009231 1.315822 4.483218
v 1.009231 0.542415 4.483218
v 1.009231 1.315822 2.430825
v 1.009231 0.542415 2.430825
v 1.009231 1.315822 0.378435
v 1.009231 0.542415 0.378435
v 1.428394 2.089230 0.378435
v 1.428394 1.315822 0.378435
v 1.428394 2.089230 2.430825
v 1.072099 2.089230 4.483218
v 1.009231 2.001576 4.483218
v 1.009231 2.001576 2.430825
v 1.072099 2.089230 2.430825
v 1.072099 2.089230 0.378435
v 1.009231 2.001576 0.378435
v 1.077960 1.315822 4.483218
v 1.071955 1.315822 0.378435
vt 0.655451 0.351916
vt 0.218056 0.630577
vt 0.759278 0.349956
vt 0.667218 0.351694
vt 0.863104 0.347995
vt 0.869166 0.669034
vt 0.765340 0.670995
vt 0.875228 0.990072
vt 0.771402 0.992033
vt 0.667575 0.993993
vt 0.230340 0.704452
vt 0.673280 0.672733
vt 0.661513 0.672955
vt 0.679342 0.993771
vt 0.594582 0.995499
vt 0.661270 0.994240
vt 0.655208 0.673201
vt 0.588520 0.674460
vt 0.649146 0.352162
vt 0.582458 0.353422
vt 0.218356 0.714873
vt 0.084616 0.629642
vt 0.084921 0.715348
vt 0.217997 0.614045
vt 0.099685 0.614466
vt 0.230394 0.719576
vt 0.364092 0.703941
vt 0.348988 0.719154
vt 0.230034 0.618507
vt 0.363787 0.618032
vn 0.000000 0.000000 1.000000
vn 0.000000 0.000000 1.000000
vn 0.000000 0.000000 1.000000
vn 0.000000 0.000000 1.000000
vn -1.000000 0.000000 0.000000
vn -1.000000 0.000000 0.000000
vn -1.000000 0.000000 0.000000
vn -1.000000 0.000000 0.000000
vn -1.000000 0.000000 0.000000
vn -1.000000 0.000000 0.000000
vn 0.000000 0.000000 -1.000000
vn 0.000000 0.000000 -1.000000
vn 0.000000 0.000000 -1.000000
vn 0.000000 0.000000 -1.000000
vn -0.812597 0.582825 0.000000
vn -0.812598 0.582825 0.000000
vn -0.812598 0.582825 0.000000
vn -0.812597 0.582825 0.000000
vn -0.812598 0.582825 0.000000
vn -0.812598 0.582825 0.000000
vn -1.000000 0.000000 0.000000
vn -1.000000 0.000000 0.000000
vn -1.000000 0.000000 0.000000
vn 0.000000 1.000000 0.000000
vn 0.000000 1.000000 0.000000
vn 0.000000 1.000000 0.000000
vn 0.000000 1.000000 0.000000
vn 0.000000 1.000000 0.000000
vn 0.000000 1.000000 0.000000
vn 0.000000 0.000000 1.000000
vn 0.000000 0.000000 1.000000
vn 0.000000 0.000000 -1.000000
vn 0.000000 0.000000 -1.000000
s 1
g RugKussen Bank
usemtl initialShadingGroup
f 12/22/1 13/25/2 3/24/3 18/2/4
s 2
f 3/3/5 5/7/6 6/6/7 4/5/8
f 5/7/6 7/9/9 8/8/10 6/6/7
s 3
f 16/27/11 9/30/12 10/29/13 19/11/14
s 4
f 12/1/15 15/13/16 14/12/17 13/4/18
f 15/13/16 16/10/19 17/14/20 14/12/17
s 2
f 14/12/21 5/7/6 3/3/5 13/4/22
f 14/12/21 17/14/23 7/9/9 5/7/6
s 5
f 11/18/24 9/20/25 16/19/26 15/17/27
f 1/15/28 11/18/24 15/17/27 12/16/29
s 1
f 2/21/30 1/23/31 12/22/1 18/2/4
s 3
f 7/26/32 17/28/33 16/27/11 19/11/14
g default
v -0.151644 0.448831 0.361532
v 0.639877 0.448831 0.361532
v 1.431399 0.448831 0.361532
v -0.151644 0.448831 0.571114
v 1.431399 0.448831 0.571114
v -0.151731 0.448764 0.771788
v 0.639877 1.460343 0.735159
v 1.431399 1.460343 0.735159
v 0.639877 1.661094 0.571114
v 1.431399 1.661094 0.571114
v 0.639877 1.661094 0.361532
v 1.431399 1.661094 0.361532
v 0.639877 0.867860 0.771788
v 1.431399 0.867860 0.771788
v 1.431399 0.867860 0.571114
v 1.431399 0.867860 0.361532
v 0.639877 0.867860 0.361532
v -0.151644 0.867860 0.361532
v -0.151644 0.867860 0.571114
v -0.151731 0.867860 0.771788
v -0.062375 1.433372 0.736683
v -0.038905 1.460343 0.735159
v -0.038905 1.661094 0.571114
v -0.151644 1.545045 0.566805
v -0.151644 1.540730 0.361532
v -0.038905 1.661094 0.361532
v 0.639877 0.867860 2.438252
v 1.431399 0.867860 2.438252
v -0.151817 0.448697 2.438252
v -0.151817 0.867860 2.438252
v -0.151644 0.448831 4.514972
v 0.639877 0.448831 4.514972
v 1.431399 0.448831 4.514972
v -0.151644 0.448831 4.305390
v 1.431399 0.448831 4.305390
v -0.151731 0.448764 4.104716
v 0.639877 1.460343 4.141346
v 1.431399 1.460343 4.141346
v 0.639877 1.661094 4.305390
v 1.431399 1.661094 4.305390
v 0.639877 1.661094 4.514972
v 1.431399 1.661094 4.514972
v 0.639877 0.867860 4.104716
v 1.431399 0.867860 4.104716
v 1.431399 0.867860 4.305390
v 1.431399 0.867860 4.514972
v 0.639877 0.867860 4.514972
v -0.151644 0.867860 4.514972
v -0.151644 0.867860 4.305390
v -0.151731 0.867860 4.104716
v -0.062375 1.433372 4.139821
v -0.038905 1.460343 4.141346
v -0.038905 1.661094 4.305390
v -0.151644 1.545045 4.309700
v -0.151644 1.540730 4.514972
v -0.038905 1.661094 4.514972
vt 0.035222 0.304235
vt 0.035222 0.108758
vt 0.083500 0.108758
vt 0.083500 0.304235
vt 0.035222 0.024982
vt 0.083500 0.024982
vt 0.593789 0.114950
vt 0.536632 0.114950
vt 0.536632 0.015767
vt 0.593789 0.015767
vt 0.592614 0.314727
vt 0.536632 0.313551
vt 0.650946 0.015767
vt 0.650946 0.114950
vt 0.593789 0.346376
vt 0.536632 0.346376
vt 0.641373 0.284272
vt 0.640957 0.291627
vt 0.446112 0.518638
vt 0.446112 0.306254
vt 0.526354 0.306254
vt 0.526354 0.518638
vt 0.379894 0.518638
vt 0.379894 0.306254
vt 0.446112 0.700771
vt 0.526354 0.700771
vt 0.379894 0.700771
vt 0.313610 0.289488
vt 0.497965 0.289488
vt 0.504340 0.282163
vt 0.528585 0.113539
vt 0.313610 0.113539
vt 0.098636 0.289488
vt 0.098636 0.113539
vt 0.179604 0.454362
vt 0.367195 0.454362
vt 0.367195 0.609588
vt 0.206212 0.609588
vt 0.179604 0.587478
vt 0.179604 0.299136
vt 0.367195 0.299136
vt 0.094040 0.452035
vt 0.094040 0.299722
vt 0.172927 0.299722
vt 0.172927 0.452035
vt 0.094040 0.604347
vt 0.172927 0.604347
vt 0.687385 0.015020
vt 0.791532 0.014880
vt 0.902631 0.011357
vt 0.984377 0.011357
vt 0.889778 0.014748
vt 0.791962 0.334131
vt 0.687815 0.334272
vt 0.984378 0.342973
vt 0.902632 0.342974
vt 0.890208 0.333999
vt 0.313610 0.289488
vt 0.497965 0.289488
vt 0.504340 0.282163
vt 0.528585 0.113539
vt 0.313610 0.113539
vt 0.098636 0.289488
vt 0.098636 0.113539
vt 0.379894 0.518638
vt 0.379894 0.306254
vt 0.446112 0.306254
vt 0.446112 0.518638
vt 0.526354 0.306254
vt 0.526354 0.518638
vt 0.179604 0.454362
vt 0.367195 0.454362
vt 0.367195 0.609588
vt 0.206212 0.609588
vt 0.179604 0.587478
vt 0.179604 0.299136
vt 0.367195 0.299136
vt 0.035222 0.304235
vt 0.035222 0.108758
vt 0.083500 0.108758
vt 0.083500 0.304235
vt 0.035222 0.024982
vt 0.083500 0.024982
vt 0.094040 0.452035
vt 0.094040 0.299722
vt 0.172927 0.299722
vt 0.172927 0.452035
vt 0.094040 0.604347
vt 0.172927 0.604347
vt 0.593789 0.114950
vt 0.536632 0.114950
vt 0.536632 0.015767
vt 0.593789 0.015767
vt 0.650946 0.015767
vt 0.650946 0.114950
vt 0.641373 0.284272
vt 0.640957 0.291627
vt 0.593789 0.346376
vt 0.592614 0.314727
vt 0.536632 0.346376
vt 0.536632 0.313551
vt 0.446112 0.700771
vt 0.379894 0.700771
vt 0.526354 0.700771
vt 0.791962 0.334131
vt 0.687815 0.334272
vt 0.687385 0.015020
vt 0.791532 0.014880
vt 0.984378 0.342973
vt 0.902632 0.342974
vt 0.902631 0.011357
vt 0.984377 0.011357
vt 0.890208 0.333999
vt 0.889778 0.014748
vn -0.000046 0.061714 0.998094
vn -0.000096 0.061724 0.998093
vn -0.000096 0.061724 0.998093
vn -0.000096 0.061724 0.998093
vn -0.000046 0.061714 0.998094
vn 0.000000 0.061705 0.998094
vn 0.000000 0.061705 0.998094
vn 0.000000 0.632760 0.774348
vn 0.000000 0.632761 0.774348
vn 0.000000 0.880896 0.473310
vn 0.000000 0.880896 0.473310
vn 0.000000 1.000000 0.000000
vn 0.000000 1.000000 0.000000
vn 0.000000 0.000000 -1.000000
vn 0.000000 0.000000 -1.000000
vn 0.000000 0.000000 -1.000000
vn 0.000000 0.000000 -1.000000
vn 0.000000 0.000000 -1.000000
vn 0.000000 0.000000 -1.000000
vn 0.000000 0.000000 -1.000000
vn 1.000000 0.000000 0.000000
vn 1.000000 0.000000 0.000000
vn 1.000000 0.000000 0.000000
vn 1.000000 0.000000 0.000000
vn 1.000000 0.000000 0.000000
vn 1.000000 0.000000 0.000000
vn 0.000000 0.000000 -1.000000
vn 0.000000 0.000000 -1.000000
vn 0.000000 0.000000 -1.000000
vn -0.997249 0.021529 0.070926
vn -1.000000 0.000000 0.000000
vn -1.000000 0.000000 0.000000
vn -1.000000 0.000000 -0.000212
vn -1.000000 0.000000 -0.000433
vn -0.987987 0.044889 0.147874
vn -0.562577 0.523326 0.640029
vn -0.562577 0.523326 0.640029
vn -0.562577 0.523326 0.640029
vn -0.562577 0.523326 0.640029
vn -0.723561 0.690224 -0.007180
vn -0.723561 0.690224 -0.007180
vn -0.723561 0.690224 -0.007180
vn -0.723560 0.690224 -0.007180
vn 0.000000 0.632760 0.774348
vn 0.000000 0.632760 0.774348
vn 0.000000 1.000000 0.000000
vn 0.000000 1.000000 0.000000
vn -0.995287 0.028136 0.092801
vn -1.000000 0.000000 0.000000
vn -0.963765 0.077396 0.255279
vn 0.000000 1.000000 -0.000000
vn 0.000000 1.000000 0.000000
vn 0.000000 1.000000 0.000000
vn 0.000000 1.000000 -0.000000
vn -1.000000 0.000001 -0.000000
vn -1.000000 0.000001 -0.000000
vn -1.000000 0.000001 -0.000052
vn -1.000000 0.000001 -0.000052
vn 0.000000 1.000000 -0.000000
vn 0.000000 1.000000 -0.000000
vn -0.000047 0.061714 -0.998094
vn -0.000047 0.061714 -0.998094
vn -0.000097 0.061724 -0.998093
vn -0.000097 0.061724 -0.998093
vn -0.000097 0.061724 -0.998093
vn 0.000000 0.061705 -0.998094
vn 0.000000 0.061705 -0.998094
vn 0.000000 0.632760 -0.774348
vn 0.000000 0.880896 -0.473310
vn 0.000000 0.880896 -0.473310
vn 0.000000 0.632761 -0.774348
vn 0.000000 1.000000 0.000000
vn 0.000000 1.000000 0.000000
vn 0.000000 0.000000 1.000000
vn 0.000000 0.000000 1.000000
vn 0.000000 0.000000 1.000000
vn 0.000000 0.000000 1.000000
vn 0.000000 0.000000 1.000000
vn 0.000000 0.000000 1.000000
vn 0.000000 0.000000 1.000000
vn 1.000000 0.000000 0.000000
vn 1.000000 0.000000 0.000000
vn 1.000000 0.000000 0.000000
vn 1.000000 0.000000 0.000000
vn 1.000000 0.000000 0.000000
vn 1.000000 0.000000 0.000000
vn 0.000000 0.000000 1.000000
vn 0.000000 0.000000 1.000000
vn 0.000000 0.000000 1.000000
vn -0.997249 0.021529 -0.070926
vn -1.000000 0.000000 0.000212
vn -1.000000 0.000000 0.000000
vn -1.000000 0.000000 0.000000
vn -1.000000 0.000000 0.000433
vn -0.987987 0.044889 -0.147874
vn -0.562576 0.523326 -0.640030
vn -0.562576 0.523326 -0.640030
vn -0.562576 0.523326 -0.640030
vn -0.562576 0.523326 -0.640030
vn -0.723562 0.690222 0.007180
vn -0.723562 0.690222 0.007180
vn -0.723562 0.690222 0.007180
vn -0.723562 0.690222 0.007180
vn 0.000000 0.632760 -0.774348
vn 0.000000 0.632760 -0.774348
vn 0.000000 1.000000 0.000000
vn 0.000000 1.000000 0.000000
vn -0.995287 0.028136 -0.092801
vn -1.000000 0.000000 0.000000
vn -0.963765 0.077396 -0.255280
vn 0.000000 1.000000 0.000000
vn 0.000000 1.000000 0.000000
vn -1.000000 0.000001 0.000052
vn -1.000000 0.000001 0.000052
vn 0.000000 1.000000 0.000000
s 1
g Bank OnderkantBank
usemtl initialShadingGroup
f 26/58/34 41/59/35 40/60/36 39/61/37 32/62/38
f 27/63/39 26/58/34 32/62/38 33/64/40
s 2
f 26/53/41 27/54/42 29/50/43 28/49/44
f 28/49/44 29/50/43 31/51/45 30/52/46
s 3
f 30/65/47 36/66/48 37/67/49 44/68/50 45/69/51
f 31/70/52 35/71/53 36/66/48 30/65/47
s 4
f 29/31/54 34/32/55 35/33/56 31/34/57
f 35/33/56 34/32/55 24/35/58 22/36/59
s 3
f 36/72/48 35/73/53 22/74/60 21/75/61
f 37/76/49 36/72/48 21/75/61 20/77/62
s 5
f 38/37/63 37/38/64 20/39/65 23/40/66
f 25/43/67 39/44/68 38/37/63 23/40/66
s off
f 40/47/69 41/48/70 42/45/71 43/41/72
f 43/41/73 42/45/74 45/46/75 44/42/76
s 2
f 42/55/77 41/57/78 26/53/41 28/49/44
f 42/55/79 28/49/44 30/52/46 45/56/80
s 5
f 43/41/81 44/42/82 37/38/64 38/37/63
f 40/47/83 43/41/81 38/37/63 39/44/68
s 6
f 46/83/84 47/84/85 33/78/86 32/79/87
s 7
f 48/85/88 49/86/89 39/80/90 25/81/91
s 6
f 49/87/92 46/83/84 32/79/87 39/82/93
s 8
f 56/88/94 62/92/95 69/91/96 70/90/97 71/89/98
f 57/93/99 63/94/100 62/92/95 56/88/94
s 9
f 56/95/101 58/98/102 59/97/103 57/96/104
f 58/98/102 60/100/105 61/99/106 59/97/103
s 10
f 60/101/107 75/105/108 74/104/109 67/103/110 66/102/111
f 61/106/112 60/101/107 66/102/111 65/107/113
s 11
f 59/108/114 61/111/115 65/110/116 64/109/117
f 65/110/116 52/113/118 54/112/119 64/109/117
s 10
f 66/114/111 51/117/120 52/116/121 65/115/113
f 67/118/110 50/119/122 51/117/120 66/114/111
s 12
f 68/120/123 53/123/124 50/122/125 67/121/126
f 55/124/127 53/123/124 68/120/123 69/125/128
s off
f 70/126/129 73/129/130 72/128/131 71/127/132
f 73/129/133 74/131/134 75/130/135 72/128/136
s 9
f 72/132/137 58/98/102 56/95/101 71/133/138
f 72/132/139 75/134/140 60/100/105 58/98/102
s 12
f 73/129/141 68/120/123 67/121/126 74/131/142
f 70/126/143 69/125/128 68/120/123 73/129/141
s 6
f 46/135/84 62/138/144 63/137/145 47/136/85
s 7
f 48/139/88 55/142/146 69/141/147 49/140/89
s 6
f 49/143/92 69/144/148 62/138/144 46/135/84
