# This file uses centimeters as units for non-parametric coordinates.

mtllib UndefinedLageKastVer3_low.mtl
g default
v 5.969250 0.476974 -5.240935
v 7.802442 0.476974 -5.240935
v 5.969250 0.476974 -6.240935
v 7.802442 0.476974 -6.240935
v 5.969250 1.352231 -5.240935
v 5.969250 1.352231 -6.240935
v 7.802442 1.352231 -6.240935
v 7.802442 1.352231 -5.240935
v 7.752141 1.352231 -5.240935
v 7.752141 0.512586 -5.240935
v 6.017614 0.512586 -5.240935
v 6.017614 1.352231 -5.240935
v 7.752141 1.352231 -5.279902
v 6.017614 1.352231 -5.279902
v 5.928484 1.352231 -5.204698
v 5.928484 1.352231 -6.240935
v 5.928484 1.444753 -5.204698
v 5.928484 1.444753 -6.240935
v 7.843207 1.352231 -6.240935
v 7.843207 1.352231 -5.204698
v 7.843207 1.444753 -6.240935
v 7.843207 1.444753 -5.204698
v 7.752141 0.512586 -5.279902
v 6.017614 0.512586 -5.279902
vt 0.730691 0.971457
vt 0.487489 0.971457
vt 0.487489 0.761630
vt 0.730691 0.761630
vt 0.487489 0.238704
vt 0.487489 0.028877
vt 0.723751 0.028876
vt 0.723751 0.238704
vt 0.487489 0.248435
vt 0.735908 0.248435
vt 0.735908 0.270616
vt 0.487489 0.270616
vt 0.735908 0.751816
vt 0.487489 0.751816
vt 0.487489 0.729636
vt 0.735908 0.729636
vt 0.758088 0.270616
vt 0.758088 0.729636
vt 0.766775 0.277926
vt 0.766776 0.289561
vt 0.766776 0.705383
vt 0.766776 0.717401
vt 0.968063 0.289561
vt 0.976602 0.277926
vt 0.774671 0.679624
vt 0.774671 0.323158
vt 0.782679 0.323158
vt 0.782679 0.679624
vt 0.963245 0.323158
vt 0.963245 0.679624
vt 0.955237 0.679624
vt 0.955237 0.323158
vt 0.955237 0.687633
vt 0.782679 0.687633
vt 0.782679 0.315149
vt 0.955237 0.315150
vt 0.465308 0.723379
vt 0.465308 0.729636
vt 0.255481 0.283904
vt 0.465308 0.283904
vt 0.255481 0.723379
vt 0.465308 0.270616
vt 0.015749 0.283904
vt 0.015749 0.723379
vt 0.968063 0.705383
vt 0.976603 0.717401
vn 1.000000 0.000000 0.000000
vn 1.000000 0.000000 0.000000
vn 1.000000 0.000000 0.000000
vn 1.000000 0.000000 0.000000
vn -1.000000 0.000000 0.000000
vn -1.000000 0.000000 0.000000
vn -1.000000 0.000000 0.000000
vn -1.000000 0.000000 0.000000
vn -1.000000 0.000000 0.000000
vn -1.000000 0.000000 0.000000
vn -1.000000 0.000000 0.000000
vn -1.000000 0.000000 0.000000
vn 1.000000 0.000000 0.000000
vn 1.000000 0.000000 0.000000
vn 1.000000 0.000000 0.000000
vn 1.000000 0.000000 0.000000
vn 0.000000 1.000000 0.000000
vn 0.000000 1.000000 0.000000
vn 0.000000 1.000000 0.000000
vn 0.000000 1.000000 0.000000
vn 0.000000 0.000000 1.000000
vn 0.000000 0.000000 1.000000
vn 0.000000 0.000000 1.000000
vn 0.000000 0.000000 1.000000
vn 0.000000 -1.000000 0.000000
vn 0.000000 -1.000000 0.000000
vn 0.000000 -1.000000 0.000000
vn 0.000000 -1.000000 0.000000
vn 0.000000 -1.000000 0.000000
vn 0.000000 -1.000000 0.000000
vn 0.000000 -1.000000 0.000000
vn 0.000000 -1.000000 0.000000
vn 0.000000 -1.000000 0.000000
vn 0.000000 -1.000000 0.000000
vn 0.000000 -1.000000 0.000000
vn 0.000000 -1.000000 0.000000
vn 0.000000 -1.000000 0.000000
vn 0.000000 -1.000000 0.000000
vn 0.000000 0.000000 1.000000
vn 0.000000 0.000000 1.000000
vn 0.000000 0.000000 1.000000
vn 0.000000 0.000000 1.000000
vn 0.000000 -1.000000 0.000000
vn 0.000000 -1.000000 0.000000
vn 0.000000 -1.000000 0.000000
vn 0.000000 -1.000000 0.000000
vn 0.000000 1.000000 0.000000
vn 0.000000 1.000000 0.000000
vn 0.000000 1.000000 0.000000
vn 0.000000 1.000000 0.000000
vn -1.000000 0.000000 0.000000
vn -1.000000 0.000000 0.000000
vn -1.000000 0.000000 0.000000
vn -1.000000 0.000000 0.000000
vn 1.000000 0.000000 0.000000
vn 1.000000 0.000000 0.000000
vn 1.000000 0.000000 0.000000
vn 1.000000 0.000000 0.000000
vn 0.000000 0.000000 1.000000
vn 0.000000 0.000000 1.000000
vn 0.000000 0.000000 1.000000
vn 0.000000 0.000000 1.000000
vn 0.000000 0.000000 -1.000000
vn 0.000000 0.000000 -1.000000
vn 0.000000 0.000000 -1.000000
vn 0.000000 0.000000 -1.000000
vn 0.000000 0.000000 -1.000000
vn 0.000000 0.000000 -1.000000
vn 0.000000 0.000000 -1.000000
vn 0.000000 0.000000 -1.000000
vn 0.000000 0.000000 -1.000000
vn 0.000000 0.000000 -1.000000
vn 0.000000 0.000000 -1.000000
vn 0.000000 0.000000 -1.000000
vn 0.000000 0.000000 -1.000000
vn 0.000000 0.000000 -1.000000
vn 0.000000 -1.000000 0.000000
vn 0.000000 -1.000000 0.000000
vn 0.000000 -1.000000 0.000000
vn 0.000000 -1.000000 0.000000
vn 0.000000 0.000000 1.000000
vn 0.000000 0.000000 1.000000
vn 0.000000 0.000000 1.000000
vn 0.000000 0.000000 1.000000
vn 0.000000 0.000000 1.000000
vn 0.000000 0.000000 1.000000
vn 0.000000 0.000000 1.000000
vn 0.000000 0.000000 1.000000
s off
g UndefinedLageKast_low:pCube3
usemtl initialShadingGroup
f 2/1/1 4/2/2 7/3/3 8/4/4
f 6/5/5 3/6/6 1/7/7 5/8/8
f 16/9/9 15/10/10 17/11/11 18/12/12
f 20/13/13 19/14/14 21/15/15 22/16/16
f 22/16/17 21/15/18 18/12/19 17/11/20
f 17/11/21 15/17/22 20/18/23 22/16/24
f 6/5/25 5/8/26 15/10/27 16/9/28
f 8/4/29 7/3/30 19/14/31 20/13/32
f 15/17/33 5/19/34 12/20/35 9/21/36 8/22/37 20/18/38
f 11/23/39 12/20/40 5/19/41 1/24/42
f 9/25/43 12/26/44 14/27/45 13/28/46
f 11/29/47 10/30/48 23/31/49 24/32/50
f 10/33/51 9/34/52 13/28/53 23/31/54
f 12/35/55 11/36/56 24/32/57 14/27/58
f 14/27/59 24/32/60 23/31/61 13/28/62
f 7/37/63 21/15/64 19/38/65
f 3/39/66 6/40/67 7/37/68 4/41/69
f 16/42/70 18/12/71 6/40/72
f 6/40/73 18/12/74 21/15/75 7/37/76
f 1/43/77 3/39/78 4/41/79 2/44/80
f 10/45/81 2/46/82 8/22/83 9/21/84
f 11/23/85 1/24/86 2/46/87 10/45/88
g default
v 6.017614 1.069197 -5.244522
v 6.860698 1.069197 -5.244522
v 6.860698 1.311653 -5.244522
v 6.565037 1.311653 -5.244522
v 6.565037 1.271074 -5.244522
v 6.290058 1.271074 -5.244522
v 6.290058 1.311653 -5.244522
v 6.017614 1.311653 -5.244522
v 7.752141 1.311653 -5.244522
v 7.481633 1.311653 -5.244522
v 7.481633 1.271074 -5.244522
v 7.206654 1.271074 -5.244522
v 7.206654 1.311653 -5.244522
v 6.913594 1.311653 -5.244522
v 6.913594 1.069197 -5.244522
v 7.752141 1.069197 -5.244522
v 7.752141 1.026229 -5.244522
v 7.060124 1.026229 -5.244522
v 7.060124 0.984652 -5.244522
v 6.712868 0.984652 -5.244522
v 6.712868 1.026229 -5.244522
v 6.017614 1.026229 -5.244522
v 7.752141 0.509663 -5.244522
v 6.017614 0.509663 -5.244522
v 6.017614 1.311653 -5.302700
v 6.017614 1.069197 -5.302700
v 6.860698 1.069197 -5.302700
v 6.860698 1.311653 -5.302700
v 6.565037 1.311653 -5.302700
v 6.565037 1.271074 -5.302700
v 6.290058 1.271074 -5.302700
v 6.290058 1.311653 -5.302700
v 7.752141 1.311653 -5.302700
v 7.752141 1.069197 -5.302700
v 7.481633 1.311653 -5.302700
v 7.481633 1.271074 -5.302700
v 7.206654 1.271074 -5.302700
v 7.206654 1.311653 -5.302700
v 6.913594 1.311653 -5.302700
v 6.913594 1.069197 -5.302700
v 6.017614 1.026229 -5.302700
v 6.017614 0.509663 -5.302700
v 7.752141 0.509663 -5.302700
v 7.752141 1.026229 -5.302700
v 7.060124 1.026229 -5.302700
v 7.060124 0.984652 -5.302700
v 6.712868 0.984652 -5.302700
v 6.712868 1.026229 -5.302700
v 6.560266 1.271074 -5.244522
vt 0.219870 0.754725
vt 0.219870 0.805270
vt 0.158523 0.805270
vt 0.043847 0.754725
vt 0.105609 0.805546
vt 0.043847 0.805546
vt 0.191668 0.147375
vt 0.042675 0.045622
vt 0.414252 0.045622
vt 0.266059 0.147375
vt 0.043847 0.805546
vt 0.031666 0.805546
vt 0.031666 0.754725
vt 0.043847 0.754725
vt 0.043847 0.742549
vt 0.219870 0.742549
vt 0.232036 0.754725
vt 0.232036 0.805270
vt 0.219870 0.817398
vt 0.158523 0.817398
vt 0.150005 0.817398
vt 0.150005 0.805270
vt 0.159299 0.821775
vt 0.159299 0.832645
vt 0.107266 0.832645
vt 0.107266 0.821636
vt 0.159299 0.821636
vt 0.114157 0.805546
vt 0.114157 0.817763
vt 0.105609 0.817763
vt 0.105609 0.805546
vt 0.043847 0.817762
vt 0.219870 0.754725
vt 0.232036 0.754725
vt 0.232036 0.805270
vt 0.219870 0.805270
vt 0.219870 0.817398
vt 0.158523 0.817398
vt 0.158523 0.805270
vt 0.150005 0.817398
vt 0.150005 0.805270
vt 0.159299 0.821636
vt 0.159299 0.832645
vt 0.107266 0.832645
vt 0.107266 0.821636
vt 0.114157 0.805546
vt 0.114157 0.817763
vt 0.105609 0.817763
vt 0.043847 0.817762
vt 0.031666 0.805546
vt 0.031666 0.754725
vt 0.043847 0.742549
vt 0.219870 0.742549
vt 0.042675 0.156387
vt 0.030212 0.156387
vt 0.030212 0.045622
vt 0.042675 0.033159
vt 0.414252 0.033159
vt 0.426715 0.045622
vt 0.426715 0.156177
vt 0.414252 0.156177
vt 0.414252 0.168646
vt 0.266059 0.168646
vt 0.266059 0.156177
vt 0.257156 0.168646
vt 0.257156 0.156177
vt 0.266938 0.170555
vt 0.266938 0.183422
vt 0.192332 0.183422
vt 0.192332 0.170555
vt 0.200579 0.156387
vt 0.200579 0.168845
vt 0.191668 0.168845
vt 0.191668 0.156387
vt 0.042675 0.168845
vt 0.102637 0.795813
vt 0.048212 0.755506
vt 0.216527 0.755506
vt 0.156575 0.795813
vt 0.048212 0.804007
vt 0.102637 0.804007
vt 0.216527 0.803819
vt 0.157534 0.803819
vt 0.157534 0.795813
vt 0.425657 0.754486
vt 0.425657 0.803795
vt 0.371480 0.803795
vt 0.371480 0.794669
vt 0.316806 0.794669
vt 0.258927 0.754486
vt 0.316806 0.801637
vt 0.258927 0.801637
vn 0.000001 0.000000 1.000000
vn 0.000001 0.000000 1.000000
vn 0.000001 0.000000 1.000000
vn 0.000001 0.000000 1.000000
vn 0.000001 0.000000 1.000000
vn 0.000000 0.000000 1.000000
vn 0.000000 0.000000 1.000000
vn 0.000000 0.000000 1.000000
vn 0.000000 0.000000 1.000000
vn 0.000000 0.000000 1.000000
vn 0.000000 0.000000 1.000000
vn 0.000000 0.000000 1.000000
vn 0.000000 0.000000 1.000000
vn -1.000000 0.000000 0.000000
vn -1.000000 0.000000 0.000000
vn -1.000000 0.000000 0.000000
vn -1.000000 0.000000 0.000000
vn 0.000000 -1.000000 0.000000
vn 0.000000 -1.000000 0.000000
vn 0.000000 -1.000000 0.000000
vn 0.000000 -1.000000 0.000000
vn 1.000000 0.000000 0.000000
vn 1.000000 0.000000 0.000000
vn 1.000000 0.000000 0.000000
vn 1.000000 0.000000 0.000000
vn 0.000000 1.000000 0.000000
vn 0.000000 1.000000 0.000000
vn 0.000000 1.000000 0.000000
vn 0.000000 1.000000 0.000000
vn -1.000000 0.000000 0.000000
vn -1.000000 0.000000 0.000000
vn -1.000000 0.000000 0.000000
vn -1.000000 0.000000 0.000000
vn 0.000000 1.000000 0.000001
vn 0.000000 1.000000 0.000001
vn 0.000000 1.000000 0.000001
vn 0.000000 1.000000 0.000001
vn 0.000000 1.000000 0.000001
vn 1.000000 0.000000 0.000000
vn 1.000000 0.000000 0.000000
vn 1.000000 0.000000 0.000000
vn 1.000000 0.000000 0.000000
vn 0.000000 1.000000 0.000000
vn 0.000000 1.000000 0.000000
vn 0.000000 1.000000 0.000000
vn 0.000000 1.000000 0.000000
vn 1.000000 0.000000 0.000000
vn 1.000000 0.000000 0.000000
vn 1.000000 0.000000 0.000000
vn 1.000000 0.000000 0.000000
vn 0.000000 1.000000 0.000000
vn 0.000000 1.000000 0.000000
vn 0.000000 1.000000 0.000000
vn 0.000000 1.000000 0.000000
vn -1.000000 0.000000 0.000000
vn -1.000000 0.000000 0.000000
vn -1.000000 0.000000 0.000000
vn -1.000000 0.000000 0.000000
vn 0.000000 1.000000 0.000000
vn 0.000000 1.000000 0.000000
vn 0.000000 1.000000 0.000000
vn 0.000000 1.000000 0.000000
vn 1.000000 0.000000 0.000000
vn 1.000000 0.000000 0.000000
vn 1.000000 0.000000 0.000000
vn 1.000000 0.000000 0.000000
vn 0.000000 1.000000 0.000000
vn 0.000000 1.000000 0.000000
vn 0.000000 1.000000 0.000000
vn 0.000000 1.000000 0.000000
vn -1.000000 0.000000 0.000000
vn -1.000000 0.000000 0.000000
vn -1.000000 0.000000 0.000000
vn -1.000000 0.000000 0.000000
vn 0.000000 -1.000000 0.000000
vn 0.000000 -1.000000 0.000000
vn 0.000000 -1.000000 0.000000
vn 0.000000 -1.000000 0.000000
vn -1.000000 0.000000 0.000000
vn -1.000000 0.000000 0.000000
vn -1.000000 0.000000 0.000000
vn -1.000000 0.000000 0.000000
vn 0.000000 -1.000000 0.000000
vn 0.000000 -1.000000 0.000000
vn 0.000000 -1.000000 0.000000
vn 0.000000 -1.000000 0.000000
vn 1.000000 0.000000 0.000000
vn 1.000000 0.000000 0.000000
vn 1.000000 0.000000 0.000000
vn 1.000000 0.000000 0.000000
vn 0.000000 1.000000 0.000000
vn 0.000000 1.000000 0.000000
vn 0.000000 1.000000 0.000000
vn 0.000000 1.000000 0.000000
vn -1.000000 0.000000 0.000000
vn -1.000000 0.000000 0.000000
vn -1.000000 0.000000 0.000000
vn -1.000000 0.000000 0.000000
vn 0.000000 1.000000 0.000000
vn 0.000000 1.000000 0.000000
vn 0.000000 1.000000 0.000000
vn 0.000000 1.000000 0.000000
vn 1.000000 0.000000 0.000000
vn 1.000000 0.000000 0.000000
vn 1.000000 0.000000 0.000000
vn 1.000000 0.000000 0.000000
vn 0.000000 1.000000 0.000000
vn 0.000000 1.000000 0.000000
vn 0.000000 1.000000 0.000000
vn 0.000000 1.000000 0.000000
vn 0.000000 0.000000 1.000000
vn 0.000000 0.000000 1.000000
vn 0.000000 0.000000 1.000000
vn 0.000000 0.000000 1.000000
vn 0.000000 0.000000 1.000000
vn 0.000000 0.000000 1.000000
vn 0.000000 0.000000 1.000000
vn 0.000000 0.000000 1.000000
vn 0.000000 0.000000 1.000000
vn 0.000000 0.000000 1.000000
vn 0.000000 0.000000 1.000000
vn 0.000000 0.000000 1.000000
vn 0.000000 0.000000 1.000000
vn 0.000000 0.000000 1.000000
vn 0.000000 0.000000 1.000000
vn 0.000000 0.000000 1.000000
vn 0.000000 0.000000 1.000000
vn 0.000000 0.000000 1.000000
vn -0.000001 0.000000 1.000000
vn -0.000001 0.000000 1.000000
vn 0.000001 0.000000 1.000000
vn 0.000000 0.000000 1.000000
vn 0.000000 0.000000 1.000000
vn 0.000001 0.000000 1.000000
s off
g UndefinedLageKast_low:polySurface1
usemtl initialShadingGroup
f 73/125/89 26/124/90 27/128/91 28/129/92 29/130/93
f 39/136/94 36/135/95 37/137/96 38/138/97
f 44/53/98 48/54/99 47/55/100 43/56/101
f 32/57/102 49/58/103 50/59/104 25/60/105
f 25/60/106 50/61/107 51/62/108 26/47/109
f 26/47/110 51/63/111 52/64/112 27/48/113
f 27/48/114 52/65/115 53/66/116 28/49/117
f 28/49/118 53/66/119 54/67/120 29/68/121
f 29/69/122 54/70/123 55/71/124 30/72/125 73/73/126
f 30/74/127 55/75/128 56/76/129 31/77/130
f 31/77/131 56/76/132 49/78/133 32/57/134
f 40/79/135 58/80/136 57/81/137 33/82/138
f 33/82/139 57/83/140 59/84/141 34/85/142
f 34/85/143 59/84/144 60/86/145 35/87/146
f 35/88/147 60/89/148 61/90/149 36/91/150
f 36/92/151 61/93/152 62/94/153 37/51/154
f 37/51/155 62/94/156 63/95/157 38/52/158
f 38/52/159 63/96/160 64/97/161 39/50/162
f 39/50/163 64/98/164 58/99/165 40/79/166
f 46/100/167 65/101/168 66/102/169 48/54/170
f 48/54/171 66/103/172 67/104/173 47/55/174
f 47/55/175 67/105/176 68/106/177 41/107/178
f 41/107/179 68/108/180 69/109/181 42/110/182
f 42/110/183 69/109/184 70/111/185 43/112/186
f 43/113/187 70/114/188 71/115/189 44/116/190
f 44/117/191 71/118/192 72/119/193 45/120/194
f 45/120/195 72/119/196 65/121/197 46/100/198
f 32/126/199 25/123/200 30/122/201 31/127/202
f 30/122/203 25/123/204 26/124/205 73/125/206
f 40/131/207 35/134/208 36/135/209 39/136/210
f 40/131/211 33/132/212 34/133/213 35/134/214
f 43/56/215 47/55/216 41/107/217 42/110/218
f 46/100/219 48/54/220 44/53/221 45/120/222
